<?xml version="1.0" encoding="UTF-8"?><svg id="Layer_1" xmlns="http://www.w3.org/2000/svg" viewBox="0 0 146 146"><defs><style>.cls-1{fill:#fff;}.cls-2{fill:#04aa89;}</style></defs><g><g><path class="cls-2" d="M30.77,135.56c-1.96,0-3.84-.97-4.97-2.64l-11.48-16.99c-1.1-1.62-1.33-3.68-.63-5.51,.7-1.83,2.26-3.2,4.16-3.67,8.5-2.1,14.02-4.49,17.64-6.76l-6.64,.36c-.11,0-.22,0-.32,0-1.48,0-2.9-.54-4.01-1.54-1.18-1.06-1.9-2.55-1.98-4.14l-3.74-69.2c-.09-1.59,.46-3.15,1.53-4.33,1.06-1.18,2.55-1.9,4.14-1.98l87.32-4.71c.11,0,.22,0,.32,0,1.48,0,2.9,.54,4.01,1.53,1.18,1.06,1.9,2.55,1.98,4.14l3.72,68.85,6.48,1.96c2.42,.73,4.12,2.9,4.25,5.42,1.57,29.11-9.38,31.96-25.02,32.8l-15.63,.84c-.52,.03-1.03,.04-1.53,.04-11.05,0-18.03-7.04-18.67-18.82l-.35-6.45c-4.69,10.87-15.3,25.02-39.21,30.63-.46,.11-.92,.16-1.37,.16Z"/><path class="cls-2" d="M30.77,135.56c-1.96,0-3.84-.97-4.97-2.64l-11.48-16.99c-1.1-1.62-1.33-3.68-.63-5.51,.7-1.83,2.26-3.2,4.16-3.67,8.5-2.1,14.02-4.49,17.64-6.76l-6.64,.36c-.11,0-.22,0-.32,0-1.48,0-2.9-.54-4.01-1.54-1.18-1.06-1.9-2.55-1.98-4.14l-3.74-69.2c-.09-1.59,.46-3.15,1.53-4.33,1.06-1.18,2.55-1.9,4.14-1.98l87.32-4.71c.11,0,.22,0,.32,0,1.48,0,2.9,.54,4.01,1.53,1.18,1.06,1.9,2.55,1.98,4.14l3.72,68.85,6.48,1.96c2.42,.73,4.12,2.9,4.25,5.42,1.57,29.11-9.38,31.96-25.02,32.8l-15.63,.84c-.52,.03-1.03,.04-1.53,.04-11.05,0-18.03-7.04-18.67-18.82l-.35-6.45c-4.69,10.87-15.3,25.02-39.21,30.63-.46,.11-.92,.16-1.37,.16Z"/><path class="cls-2" d="M30.77,145.56c-5.32,0-10.27-2.63-13.25-7.04l-11.48-16.99c-2.93-4.33-3.55-9.82-1.68-14.7,1.55-4.04,4.66-7.24,8.57-8.94-.2-.87-.32-1.77-.37-2.68L8.81,26.02c-.23-4.27,1.21-8.37,4.07-11.55,2.85-3.18,6.78-5.06,11.04-5.29L111.25,4.47c.29-.02,.58-.02,.86-.02,3.95,0,7.75,1.45,10.69,4.09,3.18,2.86,5.06,6.78,5.29,11.05l3.34,61.85c6.3,2.01,10.76,7.76,11.11,14.38,.92,17.09-1.79,27.46-9.08,34.68-7.76,7.69-17.53,8.22-25.39,8.64l-15.63,.84c-.7,.04-1.39,.06-2.07,.06-10.19,0-18.45-4.23-23.46-11.68-8.45,8.06-19.34,13.69-32.49,16.78-1.2,.28-2.43,.42-3.65,.42Z"/><path class="cls-2" d="M30.77,135.56c-1.96,0-3.84-.97-4.97-2.64l-11.48-16.99c-1.1-1.62-1.33-3.68-.63-5.51,.7-1.83,2.26-3.2,4.16-3.67,8.5-2.1,14.02-4.49,17.64-6.76l-6.64,.36c-.11,0-.22,0-.32,0-1.48,0-2.9-.54-4.01-1.54-1.18-1.06-1.9-2.55-1.98-4.14l-3.74-69.2c-.09-1.59,.46-3.15,1.53-4.33,1.06-1.18,2.55-1.9,4.14-1.98l87.32-4.71c.11,0,.22,0,.32,0,1.48,0,2.9,.54,4.01,1.53,1.18,1.06,1.9,2.55,1.98,4.14l3.72,68.85,6.48,1.96c2.42,.73,4.12,2.9,4.25,5.42,1.57,29.11-9.38,31.96-25.02,32.8l-15.63,.84c-.52,.03-1.03,.04-1.53,.04-11.05,0-18.03-7.04-18.67-18.82l-.35-6.45c-4.69,10.87-15.3,25.02-39.21,30.63-.46,.11-.92,.16-1.37,.16Z"/></g><g><path class="cls-2" d="M30.77,131.56c-1.96,0-3.84-.97-4.97-2.64l-11.48-16.99c-1.1-1.62-1.33-3.68-.63-5.51,.7-1.83,2.26-3.2,4.16-3.67,8.5-2.1,14.02-4.49,17.64-6.76l-6.64,.36c-.11,0-.22,0-.32,0-1.48,0-2.9-.54-4.01-1.54-1.18-1.06-1.9-2.55-1.98-4.14l-3.74-69.2c-.09-1.59,.46-3.15,1.53-4.33,1.06-1.18,2.55-1.9,4.14-1.98l87.32-4.71c.11,0,.22,0,.32,0,1.48,0,2.9,.54,4.01,1.53,1.18,1.06,1.9,2.55,1.98,4.14l3.72,68.85,6.48,1.96c2.42,.73,4.12,2.9,4.25,5.42,1.57,29.11-9.38,31.96-25.02,32.8l-15.63,.84c-.52,.03-1.03,.04-1.53,.04-11.05,0-18.03-7.04-18.67-18.82l-.35-6.45c-4.69,10.87-15.3,25.02-39.21,30.63-.46,.11-.92,.16-1.37,.16Z"/><path class="cls-2" d="M30.77,131.56c-1.96,0-3.84-.97-4.97-2.64l-11.48-16.99c-1.1-1.62-1.33-3.68-.63-5.51,.7-1.83,2.26-3.2,4.16-3.67,8.5-2.1,14.02-4.49,17.64-6.76l-6.64,.36c-.11,0-.22,0-.32,0-1.48,0-2.9-.54-4.01-1.54-1.18-1.06-1.9-2.55-1.98-4.14l-3.74-69.2c-.09-1.59,.46-3.15,1.53-4.33,1.06-1.18,2.55-1.9,4.14-1.98l87.32-4.71c.11,0,.22,0,.32,0,1.48,0,2.9,.54,4.01,1.53,1.18,1.06,1.9,2.55,1.98,4.14l3.72,68.85,6.48,1.96c2.42,.73,4.12,2.9,4.25,5.42,1.57,29.11-9.38,31.96-25.02,32.8l-15.63,.84c-.52,.03-1.03,.04-1.53,.04-11.05,0-18.03-7.04-18.67-18.82l-.35-6.45c-4.69,10.87-15.3,25.02-39.21,30.63-.46,.11-.92,.16-1.37,.16Z"/><path class="cls-2" d="M30.77,141.56c-5.32,0-10.27-2.63-13.25-7.04l-11.48-16.99c-2.93-4.33-3.55-9.82-1.68-14.7,1.55-4.04,4.66-7.24,8.57-8.94-.2-.87-.32-1.77-.37-2.68L8.81,22.02c-.23-4.27,1.21-8.37,4.07-11.55,2.85-3.18,6.78-5.06,11.04-5.29L111.25,.47c.29-.02,.58-.02,.86-.02,3.95,0,7.75,1.45,10.69,4.09,3.18,2.86,5.06,6.78,5.29,11.05l3.34,61.85c6.3,2.01,10.76,7.76,11.11,14.38,.92,17.09-1.79,27.46-9.08,34.68-7.76,7.69-17.53,8.22-25.39,8.64l-15.63,.84c-.7,.04-1.39,.06-2.07,.06-10.19,0-18.45-4.23-23.46-11.68-8.45,8.06-19.34,13.69-32.49,16.78-1.2,.28-2.43,.42-3.65,.42Z"/><path class="cls-2" d="M30.77,131.56c-1.96,0-3.84-.97-4.97-2.64l-11.48-16.99c-1.1-1.62-1.33-3.68-.63-5.51,.7-1.83,2.26-3.2,4.16-3.67,8.5-2.1,14.02-4.49,17.64-6.76l-6.64,.36c-.11,0-.22,0-.32,0-1.48,0-2.9-.54-4.01-1.54-1.18-1.06-1.9-2.55-1.98-4.14l-3.74-69.2c-.09-1.59,.46-3.15,1.53-4.33,1.06-1.18,2.55-1.9,4.14-1.98l87.32-4.71c.11,0,.22,0,.32,0,1.48,0,2.9,.54,4.01,1.53,1.18,1.06,1.9,2.55,1.98,4.14l3.72,68.85,6.48,1.96c2.42,.73,4.12,2.9,4.25,5.42,1.57,29.11-9.38,31.96-25.02,32.8l-15.63,.84c-.52,.03-1.03,.04-1.53,.04-11.05,0-18.03-7.04-18.67-18.82l-.35-6.45c-4.69,10.87-15.3,25.02-39.21,30.63-.46,.11-.92,.16-1.37,.16Z"/></g></g><g><path class="cls-1" d="M30.77,135.56c-3.27,0-6.4-1.61-8.28-4.4l-11.48-16.99c-1.83-2.71-2.22-6.14-1.05-9.19,1.17-3.05,3.76-5.33,6.93-6.12,1.53-.38,3.12-.81,4.72-1.29-1.83-1.75-2.93-4.14-3.07-6.68L14.81,21.69c-.14-2.65,.77-5.25,2.54-7.22s4.25-3.16,6.9-3.31L111.57,6.46c.18,0,.36-.01,.54-.01,2.46,0,4.84,.91,6.68,2.56,1.97,1.77,3.16,4.25,3.31,6.9l3.57,66.05,3.8,1.15c4.03,1.22,6.86,4.83,7.09,9.03,.82,15.2-1.37,24.21-7.31,30.1-6.14,6.08-14.29,6.53-21.49,6.91l-15.63,.84c-.59,.03-1.18,.05-1.74,.05-11.2,0-19.14-6.21-21.77-16.58-6.68,8.89-17.63,17.63-35.55,21.84-.76,.18-1.53,.26-2.28,.26Z"/><path class="cls-2" d="M91.58,120c-8.49,.46-13.38-3.82-13.88-13.11l-1.03-19.14-7.81,.42c-2.1,13.74-12.28,31.33-38.08,37.38l-11.48-16.99c19.39-4.79,26.86-11.67,29.06-19.29l-19.82,1.07-3.74-69.2,87.32-4.71,3.74,69.2-19.93,1.08,.66,12.23c.05,.91,.2,1.58,1.9,1.49l5.66-.31c1.81-.1,3.39-.3,3.15-4.83l-.46-8.61,19.75,5.98c1.36,25.26-6.56,25.8-19.36,26.49l-15.63,.84Zm2.19-85.76l-48.81,2.64,.2,3.62,48.81-2.64-.2-3.62Zm.86,15.97l-48.81,2.64,.2,3.62,48.81-2.64-.2-3.62Zm.87,16.08l-48.81,2.64,.2,3.62,48.81-2.64-.2-3.62Z"/></g></svg>