<?xml version="1.0" encoding="UTF-8"?><svg id="Layer_1" xmlns="http://www.w3.org/2000/svg" viewBox="0 0 362 161"><defs><style>.cls-1{fill:#fff;}.cls-2{fill:#04aa89;}</style></defs><g><g><g><path class="cls-2" d="M27.77,138.05c-1.96,0-3.84-.97-4.97-2.64l-11.48-16.99c-1.1-1.62-1.33-3.68-.63-5.51s2.26-3.2,4.16-3.67c8.5-2.1,14.02-4.49,17.64-6.76l-6.64,.36c-.11,0-.22,0-.32,0-1.48,0-2.9-.54-4.01-1.54-1.18-1.06-1.9-2.55-1.98-4.14L15.8,27.97c-.09-1.59,.46-3.15,1.53-4.33s2.55-1.9,4.14-1.98l87.32-4.71c.11,0,.22,0,.32,0,1.48,0,2.9,.54,4.01,1.53,1.18,1.06,1.9,2.55,1.98,4.14l3.72,68.85,6.48,1.96c2.42,.73,4.12,2.9,4.25,5.42,1.57,29.11-9.38,31.96-25.02,32.8l-15.63,.84c-.52,.03-1.03,.04-1.53,.04-11.05,0-18.03-7.04-18.67-18.82l-.35-6.45c-4.69,10.87-15.3,25.02-39.22,30.63-.46,.11-.92,.16-1.37,.16Z"/><path class="cls-2" d="M27.77,138.05c-1.96,0-3.84-.97-4.97-2.64l-11.48-16.99c-1.1-1.62-1.33-3.68-.63-5.51s2.26-3.2,4.16-3.67c8.5-2.1,14.02-4.49,17.64-6.76l-6.64,.36c-.11,0-.22,0-.32,0-1.48,0-2.9-.54-4.01-1.54-1.18-1.06-1.9-2.55-1.98-4.14L15.8,27.97c-.09-1.59,.46-3.15,1.53-4.33s2.55-1.9,4.14-1.98l87.32-4.71c.11,0,.22,0,.32,0,1.48,0,2.9,.54,4.01,1.53,1.18,1.06,1.9,2.55,1.98,4.14l3.72,68.85,6.48,1.96c2.42,.73,4.12,2.9,4.25,5.42,1.57,29.11-9.38,31.96-25.02,32.8l-15.63,.84c-.52,.03-1.03,.04-1.53,.04-11.05,0-18.03-7.04-18.67-18.82l-.35-6.45c-4.69,10.87-15.3,25.02-39.22,30.63-.46,.11-.92,.16-1.37,.16Z"/><path class="cls-2" d="M27.76,148.05c-5.32,0-10.27-2.63-13.25-7.04L3.03,124.02c-2.93-4.33-3.55-9.83-1.68-14.7,1.55-4.04,4.66-7.24,8.57-8.94-.2-.87-.32-1.77-.37-2.68L5.81,28.51c-.23-4.27,1.21-8.37,4.07-11.55,2.85-3.18,6.78-5.06,11.04-5.29L108.25,6.95c.29-.02,.58-.02,.86-.02,3.95,0,7.75,1.45,10.69,4.09,3.18,2.85,5.06,6.78,5.29,11.04l3.34,61.85c6.3,2.01,10.76,7.76,11.11,14.38,.92,17.09-1.79,27.46-9.08,34.68-7.76,7.69-17.54,8.22-25.39,8.64l-15.63,.84c-.7,.04-1.39,.06-2.07,.06-10.19,0-18.45-4.23-23.46-11.68-8.45,8.06-19.34,13.69-32.49,16.78-1.2,.28-2.43,.42-3.65,.42Z"/><path class="cls-2" d="M27.77,138.05c-1.96,0-3.84-.97-4.97-2.64l-11.48-16.99c-1.1-1.62-1.33-3.68-.63-5.51s2.26-3.2,4.16-3.67c8.5-2.1,14.02-4.49,17.64-6.76l-6.64,.36c-.11,0-.22,0-.32,0-1.48,0-2.9-.54-4.01-1.54-1.18-1.06-1.9-2.55-1.98-4.14L15.8,27.97c-.09-1.59,.46-3.15,1.53-4.33s2.55-1.9,4.14-1.98l87.32-4.71c.11,0,.22,0,.32,0,1.48,0,2.9,.54,4.01,1.53,1.18,1.06,1.9,2.55,1.98,4.14l3.72,68.85,6.48,1.96c2.42,.73,4.12,2.9,4.25,5.42,1.57,29.11-9.38,31.96-25.02,32.8l-15.63,.84c-.52,.03-1.03,.04-1.53,.04-11.05,0-18.03-7.04-18.67-18.82l-.35-6.45c-4.69,10.87-15.3,25.02-39.22,30.63-.46,.11-.92,.16-1.37,.16Z"/></g><g><g><path class="cls-2" d="M202.14,143.49c-2.78,0-5.26-1.94-5.86-4.74-1.06-4.9-1.77-10.68-2.12-17.16-.73-13.58,.28-26.6,.75-31.57,.29-3.1,2.9-5.43,5.97-5.43,.12,0,.25,0,.38,.01l10.99,.68c.86,.05,1.68,.29,2.42,.68l29.65-1.6c.11,0,.22,0,.32,0,1.48,0,2.9,.54,4.01,1.54,1.18,1.06,1.9,2.55,1.98,4.14l.49,9.12c.03,.55-.01,1.08-.12,1.59,.24,.6,.38,1.25,.42,1.9l.49,9.07c.14,2.63-1.44,4.96-3.76,5.89,1.42,.94,2.82,1.96,4.2,3.05,2.21,1.76,2.89,4.83,1.63,7.37l-4.85,9.73c-.81,1.63-2.33,2.81-4.12,3.19-.42,.09-.84,.13-1.25,.13-1.38,0-2.72-.47-3.81-1.36-.44-.36-.88-.73-1.33-1.1-2.55,1.93-6.19,3.4-11.39,3.68l-.47,.03c-.47,.03-.93,.04-1.37,.04-3.38,0-6.3-.7-8.75-1.87-.82,.67-1.82,1.12-2.88,1.28l-10.71,1.64c-.31,.05-.61,.07-.92,.07Z"/><path class="cls-2" d="M267.66,140.88c-12.11,0-19.46-7.48-20.16-20.52v-.26c-.22-3.86-.48-9.7-.75-15.88-.24-5.5-.5-11.35-.75-16.47-.08-1.62,.5-3.21,1.61-4.39,1.11-1.19,2.65-1.87,4.27-1.9,0,0,11.87-.21,11.9-.21,1.57,0,3.09,.62,4.21,1.72,1.15,1.13,1.79,2.68,1.79,4.29-.02,8.66,.31,19,.53,25.85l.11,3.53s.04,.64,.04,.72c3.51-1.01,7.9-5.14,11.2-14.27,.68-1.89,2.27-3.32,4.23-3.79,.47-.11,.94-.17,1.41-.17,1.5,0,2.96,.56,4.09,1.61l9.3,8.65c1.87,1.73,2.43,4.46,1.41,6.79-8.45,19.37-22.51,24.1-32.82,24.66-.55,.03-1.09,.04-1.64,.04Z"/><path class="cls-2" d="M315.07,136.79c-4.71,0-9.26-1.97-12.81-5.56-4.92-4.94-7.52-14.64-8.43-31.46-.19-3.5-.31-7.33-.36-11.72-.04-3.29,2.58-6,5.86-6.07,0,0,11.99-.27,12.04-.27,1.64,0,3.22,.67,4.35,1.87,1.17,1.23,1.76,2.89,1.63,4.58-.35,4.58-.44,9.21-.28,13.48,.73-.52,1.57-.88,2.49-1.04,.34-.06,.68-.09,1.01-.09,1.86,0,3.64,.87,4.79,2.39l2.8,3.71c-1.85-4.56-4.29-8.64-7.37-11.37-1.51-1.34-2.25-3.35-1.96-5.35s1.57-3.72,3.39-4.57l10.27-4.81c.81-.38,1.68-.57,2.54-.57,1.48,0,2.93,.54,4.06,1.59,10.43,9.6,16.05,28.24,16.57,37.82l.03,.48c.13,2.42-1.21,4.67-3.38,5.72l-11.04,5.33c-.83,.4-1.72,.6-2.61,.6-1.02,0-2.05-.26-2.96-.78-1.71-.97-2.84-2.72-3.01-4.69-.04-.46-.09-.93-.14-1.41-5.28,9.96-12.45,11.93-16.57,12.16-.31,.02-.61,.02-.92,.02Z"/></g><g><path class="cls-2" d="M202.14,143.49c-2.78,0-5.26-1.94-5.86-4.74-1.06-4.9-1.77-10.68-2.12-17.16-.73-13.58,.28-26.6,.75-31.57,.29-3.1,2.9-5.43,5.97-5.43,.12,0,.25,0,.38,.01l10.99,.68c.86,.05,1.68,.29,2.42,.68l29.65-1.6c.11,0,.22,0,.32,0,1.48,0,2.9,.54,4.01,1.54,1.18,1.06,1.9,2.55,1.98,4.14l.49,9.12c.03,.55-.01,1.08-.12,1.59,.24,.6,.38,1.25,.42,1.9l.49,9.07c.14,2.63-1.44,4.96-3.76,5.89,1.42,.94,2.82,1.96,4.2,3.05,2.21,1.76,2.89,4.83,1.63,7.37l-4.85,9.73c-.81,1.63-2.33,2.81-4.12,3.19-.42,.09-.84,.13-1.25,.13-1.38,0-2.72-.47-3.81-1.36-.44-.36-.88-.73-1.33-1.1-2.55,1.93-6.19,3.4-11.39,3.68l-.47,.03c-.47,.03-.93,.04-1.37,.04-3.38,0-6.3-.7-8.75-1.87-.82,.67-1.82,1.12-2.88,1.28l-10.71,1.64c-.31,.05-.61,.07-.92,.07Z"/><path class="cls-2" d="M267.66,140.88c-12.11,0-19.46-7.48-20.16-20.52v-.26c-.22-3.86-.48-9.7-.75-15.88-.24-5.5-.5-11.35-.75-16.47-.08-1.62,.5-3.21,1.61-4.39,1.11-1.19,2.65-1.87,4.27-1.9,0,0,11.87-.21,11.9-.21,1.57,0,3.09,.62,4.21,1.72,1.15,1.13,1.79,2.68,1.79,4.29-.02,8.66,.31,19,.53,25.85l.11,3.53s.04,.64,.04,.72c3.51-1.01,7.9-5.14,11.2-14.27,.68-1.89,2.27-3.32,4.23-3.79,.47-.11,.94-.17,1.41-.17,1.5,0,2.96,.56,4.09,1.61l9.3,8.65c1.87,1.73,2.43,4.46,1.41,6.79-8.45,19.37-22.51,24.1-32.82,24.66-.55,.03-1.09,.04-1.64,.04Z"/><path class="cls-2" d="M315.07,136.79c-4.71,0-9.26-1.97-12.81-5.56-4.92-4.94-7.52-14.64-8.43-31.46-.19-3.5-.31-7.33-.36-11.72-.04-3.29,2.58-6,5.86-6.07,0,0,11.99-.27,12.04-.27,1.64,0,3.22,.67,4.35,1.87,1.17,1.23,1.76,2.89,1.63,4.58-.35,4.58-.44,9.21-.28,13.48,.73-.52,1.57-.88,2.49-1.04,.34-.06,.68-.09,1.01-.09,1.86,0,3.64,.87,4.79,2.39l2.8,3.71c-1.85-4.56-4.29-8.64-7.37-11.37-1.51-1.34-2.25-3.35-1.96-5.35s1.57-3.72,3.39-4.57l10.27-4.81c.81-.38,1.68-.57,2.54-.57,1.48,0,2.93,.54,4.06,1.59,10.43,9.6,16.05,28.24,16.57,37.82l.03,.48c.13,2.42-1.21,4.67-3.38,5.72l-11.04,5.33c-.83,.4-1.72,.6-2.61,.6-1.02,0-2.05-.26-2.96-.78-1.71-.97-2.84-2.72-3.01-4.69-.04-.46-.09-.93-.14-1.41-5.28,9.96-12.45,11.93-16.57,12.16-.31,.02-.61,.02-.92,.02Z"/></g><g><path class="cls-2" d="M202.14,149.49c-5.61,0-10.54-3.98-11.72-9.47-1.12-5.21-1.88-11.3-2.25-18.11-.75-13.97,.29-27.35,.77-32.46,.59-6.2,5.72-10.87,11.94-10.87,.25,0,.49,0,.75,.02l11,.68c1.06,.06,2.09,.27,3.08,.6l28.3-1.53c.21-.01,.43-.02,.65-.02,2.96,0,5.81,1.09,8.02,3.07,2.38,2.14,3.79,5.08,3.96,8.28l.49,9.12c.03,.47,.02,.93,0,1.4,.16,.69,.26,1.39,.3,2.1l.49,9.07c.1,1.88-.24,3.7-.94,5.35,3.69,3.59,4.72,9.28,2.38,13.96l-4.85,9.73c-1.64,3.29-4.64,5.62-8.23,6.38-.82,.18-1.67,.27-2.51,.27-1.9,0-3.77-.46-5.45-1.31-3.11,1.46-6.71,2.3-10.75,2.52l-.46,.03c-.6,.03-1.16,.05-1.71,.05-2.96,0-5.77-.43-8.37-1.27-.76,.28-1.55,.49-2.36,.61l-10.71,1.64c-.61,.09-1.22,.14-1.82,.14Z"/><path class="cls-2" d="M267.66,146.88c-15.26,0-25.28-10.04-26.15-26.19v-.24c-.22-3.84-.47-9.58-.74-15.65l-.02-.52c-.24-5.43-.49-11.18-.74-16.23-.16-3.23,1.02-6.43,3.22-8.78,2.2-2.36,5.32-3.74,8.55-3.8q11.92-.21,12.01-.21c3.17,0,6.16,1.23,8.42,3.45,2.28,2.25,3.59,5.37,3.58,8.57,0,4.43,.07,9.3,.18,13.91,.02-.04,.03-.09,.05-.14,1.37-3.8,4.54-6.63,8.46-7.58,.93-.22,1.88-.34,2.82-.34,3.04,0,5.94,1.14,8.17,3.21l9.3,8.65c3.72,3.46,4.86,8.92,2.83,13.58-7.55,17.31-21.04,27.34-37.99,28.25-.66,.04-1.31,.05-1.96,.05Z"/><path class="cls-2" d="M315.07,142.79c-6.33,0-12.39-2.6-17.08-7.33-6.11-6.13-9.15-16.71-10.16-35.36-.19-3.57-.31-7.48-.37-11.96-.08-6.55,5.18-12,11.73-12.15,12.06-.27,12.08-.27,12.17-.27,3.28,0,6.45,1.36,8.71,3.74,.06,.06,.11,.12,.17,.18l9.72-4.55c1.6-.75,3.32-1.13,5.09-1.13,3.02,0,5.91,1.13,8.13,3.17,11.78,10.85,17.91,31.04,18.5,41.92l.03,.49c.26,4.84-2.4,9.33-6.77,11.44l-11.04,5.33c-1.62,.78-3.42,1.19-5.22,1.19-2.07,0-4.12-.54-5.93-1.57-.24-.14-.48-.29-.71-.44-5.7,5.73-11.93,7.07-15.72,7.27-.42,.02-.83,.03-1.24,.03Z"/></g><g><path class="cls-2" d="M202.14,143.49c-2.78,0-5.26-1.94-5.86-4.74-1.06-4.9-1.77-10.68-2.12-17.16-.73-13.58,.28-26.6,.75-31.57,.29-3.1,2.9-5.43,5.97-5.43,.12,0,.25,0,.38,.01l10.99,.68c.86,.05,1.68,.29,2.42,.68l29.65-1.6c.11,0,.22,0,.32,0,1.48,0,2.9,.54,4.01,1.54,1.18,1.06,1.9,2.55,1.98,4.14l.49,9.12c.03,.55-.01,1.08-.12,1.59,.24,.6,.38,1.25,.42,1.9l.49,9.07c.14,2.63-1.44,4.96-3.76,5.89,1.42,.94,2.82,1.96,4.2,3.05,2.21,1.76,2.89,4.83,1.63,7.37l-4.85,9.73c-.81,1.63-2.33,2.81-4.12,3.19-.42,.09-.84,.13-1.25,.13-1.38,0-2.72-.47-3.81-1.36-.44-.36-.88-.73-1.33-1.1-2.55,1.93-6.19,3.4-11.39,3.68l-.47,.03c-.47,.03-.93,.04-1.37,.04-3.38,0-6.3-.7-8.75-1.87-.82,.67-1.82,1.12-2.88,1.28l-10.71,1.64c-.31,.05-.61,.07-.92,.07Z"/><path class="cls-2" d="M267.66,140.88c-12.11,0-19.46-7.48-20.16-20.52v-.26c-.22-3.86-.48-9.7-.75-15.88-.24-5.5-.5-11.35-.75-16.47-.08-1.62,.5-3.21,1.61-4.39,1.11-1.19,2.65-1.87,4.27-1.9,0,0,11.87-.21,11.9-.21,1.57,0,3.09,.62,4.21,1.72,1.15,1.13,1.79,2.68,1.79,4.29-.02,8.66,.31,19,.53,25.85l.11,3.53s.04,.64,.04,.72c3.51-1.01,7.9-5.14,11.2-14.27,.68-1.89,2.27-3.32,4.23-3.79,.47-.11,.94-.17,1.41-.17,1.5,0,2.96,.56,4.09,1.61l9.3,8.65c1.87,1.73,2.43,4.46,1.41,6.79-8.45,19.37-22.51,24.1-32.82,24.66-.55,.03-1.09,.04-1.64,.04Z"/><path class="cls-2" d="M315.07,136.79c-4.71,0-9.26-1.97-12.81-5.56-4.92-4.94-7.52-14.64-8.43-31.46-.19-3.5-.31-7.33-.36-11.72-.04-3.29,2.58-6,5.86-6.07,0,0,11.99-.27,12.04-.27,1.64,0,3.22,.67,4.35,1.87,1.17,1.23,1.76,2.89,1.63,4.58-.35,4.58-.44,9.21-.28,13.48,.73-.52,1.57-.88,2.49-1.04,.34-.06,.68-.09,1.01-.09,1.86,0,3.64,.87,4.79,2.39l2.8,3.71c-1.85-4.56-4.29-8.64-7.37-11.37-1.51-1.34-2.25-3.35-1.96-5.35s1.57-3.72,3.39-4.57l10.27-4.81c.81-.38,1.68-.57,2.54-.57,1.48,0,2.93,.54,4.06,1.59,10.43,9.6,16.05,28.24,16.57,37.82l.03,.48c.13,2.42-1.21,4.67-3.38,5.72l-11.04,5.33c-.83,.4-1.72,.6-2.61,.6-1.02,0-2.05-.26-2.96-.78-1.71-.97-2.84-2.72-3.01-4.69-.04-.46-.09-.93-.14-1.41-5.28,9.96-12.45,11.93-16.57,12.16-.31,.02-.61,.02-.92,.02Z"/></g></g><g><g><path class="cls-2" d="M148.71,77.67c-1.35,0-2.7-.46-3.8-1.35l-9.35-7.64c-1.57-1.28-2.38-3.26-2.17-5.27,.21-2.01,1.42-3.78,3.22-4.71,5.59-2.88,10.26-6.13,14.13-9.82-2.58-1.31-5.14-2.47-7.67-3.48-1.78-.71-3.12-2.23-3.59-4.09-.47-1.86-.03-3.83,1.19-5.31l7.19-8.69c1.16-1.4,2.87-2.17,4.62-2.17,.68,0,1.37,.12,2.04,.36,2.49,.9,5.31,2.16,8.44,3.76,.97-2.85,1.77-5.88,2.39-9.06,.32-1.63,1.3-3.05,2.71-3.93,.96-.6,2.07-.91,3.18-.91,.51,0,1.03,.07,1.54,.2l11.26,2.99c3.19,.85,5.1,4.12,4.27,7.31-1.57,6.01-3.27,11.16-5.25,15.85,3.71,2.71,7.02,5.45,9.57,7.94,2.23,2.18,2.43,5.7,.45,8.11l-7.69,9.35c-1.08,1.31-2.67,2.11-4.37,2.18-.09,0-.18,0-.27,0-1.6,0-3.14-.64-4.27-1.79-1.85-1.88-3.88-3.75-6.07-5.58-5.24,5.88-11.53,10.91-18.77,14.99-.92,.52-1.93,.77-2.94,.77Z"/><path class="cls-2" d="M190.05,56.3c-3.17,0-5.81-2.48-5.99-5.68l-.63-11.7c-.09-1.59,.46-3.15,1.53-4.33,1.06-1.18,2.55-1.9,4.14-1.98l45.96-2.48c.11,0,.22,0,.33,0,3.17,0,5.81,2.48,5.99,5.68l.63,11.7c.09,1.59-.46,3.15-1.53,4.33-1.06,1.18-2.55,1.9-4.14,1.98l-45.96,2.48c-.11,0-.22,0-.33,0Z"/><path class="cls-2" d="M245.49,71.86c-1.36,0-2.71-.46-3.81-1.36l-9.18-7.54c-1.56-1.28-2.37-3.25-2.16-5.26,.21-2,1.41-3.77,3.19-4.7,6.42-3.35,9.84-6.45,11.63-11.19l-5.92,.32c-.11,0-.22,0-.33,0-3.17,0-5.81-2.48-5.99-5.68l-.53-9.8c-.18-3.31,2.36-6.14,5.67-6.31l8.63-.47-.11-2.57c-.14-3.28,2.39-6.06,5.67-6.24l11.12-.6c.11,0,.22,0,.32,0,1.5,0,2.95,.56,4.06,1.58,1.19,1.1,1.89,2.62,1.93,4.24l.07,2.35,11.3-.61c.11,0,.22,0,.32,0,1.48,0,2.9,.54,4.01,1.53,1.18,1.06,1.9,2.55,1.98,4.14,.58,10.72,1.02,24.7-.14,30.39-1.37,6.6-5.87,14.63-19.51,15.48-1.5,.08-2.96,.16-4.58,.19-.04,0-.08,0-.12,0-2.42,0-4.61-1.45-5.54-3.7l-.61-1.46c-2.34,2.24-5.06,4.34-8.17,6.32-.99,.63-2.11,.94-3.22,.94Z"/><path class="cls-2" d="M287.55,51.04c-3.17,0-5.81-2.48-5.99-5.68l-.63-11.7c-.09-1.59,.46-3.15,1.53-4.33,1.06-1.18,2.55-1.9,4.14-1.98l45.96-2.48c.11,0,.22,0,.32,0,1.48,0,2.9,.54,4.01,1.54,1.18,1.06,1.9,2.55,1.98,4.14l.63,11.7c.18,3.31-2.36,6.14-5.67,6.31l-45.96,2.48c-.11,0-.22,0-.33,0Z"/></g><g><path class="cls-2" d="M148.71,77.67c-1.35,0-2.7-.46-3.8-1.35l-9.35-7.64c-1.57-1.28-2.38-3.26-2.17-5.27,.21-2.01,1.42-3.78,3.22-4.71,5.59-2.88,10.26-6.13,14.13-9.82-2.58-1.31-5.14-2.47-7.67-3.48-1.78-.71-3.12-2.23-3.59-4.09-.47-1.86-.03-3.83,1.19-5.31l7.19-8.69c1.16-1.4,2.87-2.17,4.62-2.17,.68,0,1.37,.12,2.04,.36,2.49,.9,5.31,2.16,8.44,3.76,.97-2.85,1.77-5.88,2.39-9.06,.32-1.63,1.3-3.05,2.71-3.93,.96-.6,2.07-.91,3.18-.91,.51,0,1.03,.07,1.54,.2l11.26,2.99c3.19,.85,5.1,4.12,4.27,7.31-1.57,6.01-3.27,11.16-5.25,15.85,3.71,2.71,7.02,5.45,9.57,7.94,2.23,2.18,2.43,5.7,.45,8.11l-7.69,9.35c-1.08,1.31-2.67,2.11-4.37,2.18-.09,0-.18,0-.27,0-1.6,0-3.14-.64-4.27-1.79-1.85-1.88-3.88-3.75-6.07-5.58-5.24,5.88-11.53,10.91-18.77,14.99-.92,.52-1.93,.77-2.94,.77Z"/><path class="cls-2" d="M190.05,56.3c-3.17,0-5.81-2.48-5.99-5.68l-.63-11.7c-.09-1.59,.46-3.15,1.53-4.33,1.06-1.18,2.55-1.9,4.14-1.98l45.96-2.48c.11,0,.22,0,.33,0,3.17,0,5.81,2.48,5.99,5.68l.63,11.7c.09,1.59-.46,3.15-1.53,4.33-1.06,1.18-2.55,1.9-4.14,1.98l-45.96,2.48c-.11,0-.22,0-.33,0Z"/><path class="cls-2" d="M245.49,71.86c-1.36,0-2.71-.46-3.81-1.36l-9.18-7.54c-1.56-1.28-2.37-3.25-2.16-5.26,.21-2,1.41-3.77,3.19-4.7,6.42-3.35,9.84-6.45,11.63-11.19l-5.92,.32c-.11,0-.22,0-.33,0-3.17,0-5.81-2.48-5.99-5.68l-.53-9.8c-.18-3.31,2.36-6.14,5.67-6.31l8.63-.47-.11-2.57c-.14-3.28,2.39-6.06,5.67-6.24l11.12-.6c.11,0,.22,0,.32,0,1.5,0,2.95,.56,4.06,1.58,1.19,1.1,1.89,2.62,1.93,4.24l.07,2.35,11.3-.61c.11,0,.22,0,.32,0,1.48,0,2.9,.54,4.01,1.53,1.18,1.06,1.9,2.55,1.98,4.14,.58,10.72,1.02,24.7-.14,30.39-1.37,6.6-5.87,14.63-19.51,15.48-1.5,.08-2.96,.16-4.58,.19-.04,0-.08,0-.12,0-2.42,0-4.61-1.45-5.54-3.7l-.61-1.46c-2.34,2.24-5.06,4.34-8.17,6.32-.99,.63-2.11,.94-3.22,.94Z"/><path class="cls-2" d="M287.55,51.04c-3.17,0-5.81-2.48-5.99-5.68l-.63-11.7c-.09-1.59,.46-3.15,1.53-4.33,1.06-1.18,2.55-1.9,4.14-1.98l45.96-2.48c.11,0,.22,0,.32,0,1.48,0,2.9,.54,4.01,1.54,1.18,1.06,1.9,2.55,1.98,4.14l.63,11.7c.18,3.31-2.36,6.14-5.67,6.31l-45.96,2.48c-.11,0-.22,0-.33,0Z"/></g><g><path class="cls-2" d="M148.71,83.67c-2.76,0-5.46-.96-7.59-2.71l-9.35-7.64c-3.14-2.57-4.77-6.51-4.34-10.54,.42-4.04,2.83-7.56,6.44-9.41,1.95-1.01,3.77-2.05,5.46-3.14-2.79-1.6-4.85-4.29-5.65-7.44-.94-3.7-.05-7.67,2.39-10.62l7.2-8.69c2.29-2.76,5.66-4.35,9.24-4.35,1.39,0,2.77,.24,4.08,.72,.81,.29,1.66,.62,2.53,.98,.13-.59,.26-1.19,.38-1.79,.63-3.25,2.61-6.11,5.41-7.87,1.91-1.2,4.11-1.83,6.37-1.83,1.04,0,2.07,.13,3.08,.4l11.26,2.99c6.37,1.69,10.2,8.25,8.54,14.62-1.17,4.5-2.43,8.57-3.81,12.32,2.46,1.95,4.67,3.87,6.51,5.67,4.43,4.32,4.82,11.44,.89,16.21l-7.69,9.35c-2.16,2.62-5.34,4.21-8.73,4.36-.18,0-.36,.01-.54,.01-3.19,0-6.31-1.31-8.55-3.58-.48-.49-.98-.98-1.49-1.47-4.75,4.54-10.15,8.53-16.12,11.9-1.8,1.01-3.83,1.55-5.89,1.55Z"/><path class="cls-2" d="M190.05,62.3c-6.37,0-11.63-4.99-11.98-11.35l-.63-11.7c-.17-3.2,.91-6.28,3.05-8.66,2.14-2.38,5.08-3.79,8.28-3.97l45.96-2.48c.22-.01,.44-.02,.65-.02,6.37,0,11.63,4.99,11.98,11.35l.63,11.7c.17,3.2-.91,6.28-3.05,8.66-2.14,2.38-5.08,3.79-8.28,3.97l-45.96,2.48c-.22,.01-.44,.02-.65,.02Z"/><path class="cls-2" d="M245.49,77.86c-2.77,0-5.48-.97-7.62-2.73l-9.18-7.54c-3.12-2.56-4.74-6.49-4.32-10.51,.42-4.02,2.8-7.53,6.39-9.4,.77-.4,1.48-.79,2.12-1.17-3.38-1.97-5.72-5.55-5.94-9.73l-.53-9.8c-.17-3.2,.91-6.28,3.05-8.66,2.14-2.39,5.08-3.79,8.28-3.97l3.19-.17c1.25-4.98,5.64-8.81,11-9.1l11.12-.6c.21-.01,.43-.02,.65-.02,3.02,0,5.9,1.13,8.13,3.17,1.41,1.3,2.49,2.93,3.14,4.71l5.78-.31c.21-.01,.43-.02,.65-.02,2.96,0,5.81,1.09,8.02,3.07,2.38,2.14,3.79,5.08,3.97,8.28,.87,16.11,.78,26.85-.25,31.92-1.47,7.09-6.68,19.12-25.02,20.26-1.55,.08-3.1,.17-4.84,.2h-.23c-2.68,0-5.2-.88-7.24-2.42-1.22,.91-2.51,1.79-3.85,2.65-1.93,1.23-4.16,1.88-6.45,1.88Z"/><path class="cls-2" d="M287.55,57.04c-6.37,0-11.63-4.99-11.98-11.35l-.63-11.7c-.17-3.2,.91-6.28,3.05-8.66,2.14-2.38,5.08-3.79,8.28-3.97l45.96-2.48c.21-.01,.43-.02,.65-.02,2.96,0,5.81,1.09,8.02,3.07,2.38,2.14,3.79,5.08,3.97,8.28l.63,11.7c.36,6.61-4.73,12.27-11.34,12.63l-45.96,2.48c-.22,.01-.44,.02-.65,.02Z"/></g><g><path class="cls-2" d="M148.71,77.67c-1.35,0-2.7-.46-3.8-1.35l-9.35-7.64c-1.57-1.28-2.38-3.26-2.17-5.27,.21-2.01,1.42-3.78,3.22-4.71,5.59-2.88,10.26-6.13,14.13-9.82-2.58-1.31-5.14-2.47-7.67-3.48-1.78-.71-3.12-2.23-3.59-4.09-.47-1.86-.03-3.83,1.19-5.31l7.19-8.69c1.16-1.4,2.87-2.17,4.62-2.17,.68,0,1.37,.12,2.04,.36,2.49,.9,5.31,2.16,8.44,3.76,.97-2.85,1.77-5.88,2.39-9.06,.32-1.63,1.3-3.05,2.71-3.93,.96-.6,2.07-.91,3.18-.91,.51,0,1.03,.07,1.54,.2l11.26,2.99c3.19,.85,5.1,4.12,4.27,7.31-1.57,6.01-3.27,11.16-5.25,15.85,3.71,2.71,7.02,5.45,9.57,7.94,2.23,2.18,2.43,5.7,.45,8.11l-7.69,9.35c-1.08,1.31-2.67,2.11-4.37,2.18-.09,0-.18,0-.27,0-1.6,0-3.14-.64-4.27-1.79-1.85-1.88-3.88-3.75-6.07-5.58-5.24,5.88-11.53,10.91-18.77,14.99-.92,.52-1.93,.77-2.94,.77Z"/><path class="cls-2" d="M190.05,56.3c-3.17,0-5.81-2.48-5.99-5.68l-.63-11.7c-.09-1.59,.46-3.15,1.53-4.33,1.06-1.18,2.55-1.9,4.14-1.98l45.96-2.48c.11,0,.22,0,.33,0,3.17,0,5.81,2.48,5.99,5.68l.63,11.7c.09,1.59-.46,3.15-1.53,4.33-1.06,1.18-2.55,1.9-4.14,1.98l-45.96,2.48c-.11,0-.22,0-.33,0Z"/><path class="cls-2" d="M245.49,71.86c-1.36,0-2.71-.46-3.81-1.36l-9.18-7.54c-1.56-1.28-2.37-3.25-2.16-5.26,.21-2,1.41-3.77,3.19-4.7,6.42-3.35,9.84-6.45,11.63-11.19l-5.92,.32c-.11,0-.22,0-.33,0-3.17,0-5.81-2.48-5.99-5.68l-.53-9.8c-.18-3.31,2.36-6.14,5.67-6.31l8.63-.47-.11-2.57c-.14-3.28,2.39-6.06,5.67-6.24l11.12-.6c.11,0,.22,0,.32,0,1.5,0,2.95,.56,4.06,1.58,1.19,1.1,1.89,2.62,1.93,4.24l.07,2.35,11.3-.61c.11,0,.22,0,.32,0,1.48,0,2.9,.54,4.01,1.53,1.18,1.06,1.9,2.55,1.98,4.14,.58,10.72,1.02,24.7-.14,30.39-1.37,6.6-5.87,14.63-19.51,15.48-1.5,.08-2.96,.16-4.58,.19-.04,0-.08,0-.12,0-2.42,0-4.61-1.45-5.54-3.7l-.61-1.46c-2.34,2.24-5.06,4.34-8.17,6.32-.99,.63-2.11,.94-3.22,.94Z"/><path class="cls-2" d="M287.55,51.04c-3.17,0-5.81-2.48-5.99-5.68l-.63-11.7c-.09-1.59,.46-3.15,1.53-4.33,1.06-1.18,2.55-1.9,4.14-1.98l45.96-2.48c.11,0,.22,0,.32,0,1.48,0,2.9,.54,4.01,1.54,1.18,1.06,1.9,2.55,1.98,4.14l.63,11.7c.18,3.31-2.36,6.14-5.67,6.31l-45.96,2.48c-.11,0-.22,0-.33,0Z"/></g></g><g><path class="cls-2" d="M135.46,144.15c-5.82,0-13.06,0-19.24-2.45-8.19-3.25-12.67-10.02-12.94-19.59-.09-2.41-.15-5.8-.18-9.83,0,0-4.07,.11-4.12,.11-1.54,0-3.02-.59-4.14-1.66-1.16-1.1-1.82-2.62-1.86-4.21l-.27-12.43c-.07-3.3,2.54-6.04,5.84-6.13l4.54-.12c0-.57,0-1.13,.01-1.69,.02-2.27,.03-4.47,.03-6.55,0-3.31,2.69-6,6-6h13.62c1.62,0,3.17,.66,4.3,1.82s1.74,2.73,1.69,4.35c-.07,2.45-.14,4.95-.2,7.42l3.09-.08c0-2.57-.07-5.1-.13-7.27-.05-1.63,.57-3.21,1.72-4.37,1.13-1.15,2.67-1.8,4.28-1.8,.02,0,13.48,.13,13.48,.13,3.29,.03,5.94,2.71,5.94,6v3.12c0,1.12,0,2.29-.02,3.48,0,0,4.54-.11,4.59-.11,1.54,0,3.03,.59,4.14,1.66,1.15,1.1,1.82,2.62,1.85,4.21l.27,12.43c.07,3.31-2.55,6.05-5.86,6.13l-5.97,.14c-.31,2.65-.8,5.01-1.57,7.09,1.27,.11,2.49,.62,3.46,1.48,1.31,1.15,2.05,2.82,2.03,4.56l-.13,13.42c-.03,3.11-2.44,5.69-5.54,5.92-7.1,.54-13.41,.82-18.73,.82Z"/><path class="cls-2" d="M135.46,144.15c-5.82,0-13.06,0-19.24-2.45-8.19-3.25-12.67-10.02-12.94-19.59-.09-2.41-.15-5.8-.18-9.83,0,0-4.07,.11-4.12,.11-1.54,0-3.02-.59-4.14-1.66-1.16-1.1-1.82-2.62-1.86-4.21l-.27-12.43c-.07-3.3,2.54-6.04,5.84-6.13l4.54-.12c0-.57,0-1.13,.01-1.69,.02-2.27,.03-4.47,.03-6.55,0-3.31,2.69-6,6-6h13.62c1.62,0,3.17,.66,4.3,1.82s1.74,2.73,1.69,4.35c-.07,2.45-.14,4.95-.2,7.42l3.09-.08c0-2.57-.07-5.1-.13-7.27-.05-1.63,.57-3.21,1.72-4.37,1.13-1.15,2.67-1.8,4.28-1.8,.02,0,13.48,.13,13.48,.13,3.29,.03,5.94,2.71,5.94,6v3.12c0,1.12,0,2.29-.02,3.48,0,0,4.54-.11,4.59-.11,1.54,0,3.03,.59,4.14,1.66,1.15,1.1,1.82,2.62,1.85,4.21l.27,12.43c.07,3.31-2.55,6.05-5.86,6.13l-5.97,.14c-.31,2.65-.8,5.01-1.57,7.09,1.27,.11,2.49,.62,3.46,1.48,1.31,1.15,2.05,2.82,2.03,4.56l-.13,13.42c-.03,3.11-2.44,5.69-5.54,5.92-7.1,.54-13.41,.82-18.73,.82Z"/><path class="cls-2" d="M135.46,150.15c-6.33,0-14.2,0-21.45-2.87-10.44-4.14-16.39-13.02-16.73-25-.04-1.12-.08-2.48-.11-4.03-2.42-.36-4.68-1.46-6.48-3.18-2.29-2.19-3.65-5.26-3.72-8.43l-.27-12.43c-.13-6.16,4.44-11.37,10.42-12.15,0-.84,0-1.66,0-2.46,0-6.62,5.38-12,12-12h13.62c2.69,0,5.32,.92,7.42,2.57,2.09-1.61,4.68-2.5,7.33-2.5t13.54,.13c6.55,.06,11.88,5.45,11.88,12v.58c2.56,.31,4.96,1.43,6.85,3.23,2.29,2.19,3.64,5.26,3.71,8.42l.27,12.43c.13,6.15-4.42,11.35-10.39,12.15,1.62,2.11,2.51,4.72,2.48,7.43l-.13,13.42c-.06,6.28-4.83,11.37-11.09,11.85-7.26,.55-13.71,.83-19.19,.83Z"/><path class="cls-2" d="M135.46,144.15c-5.82,0-13.06,0-19.24-2.45-8.19-3.25-12.67-10.02-12.94-19.59-.09-2.41-.15-5.8-.18-9.83,0,0-4.07,.11-4.12,.11-1.54,0-3.02-.59-4.14-1.66-1.16-1.1-1.82-2.62-1.86-4.21l-.27-12.43c-.07-3.3,2.54-6.04,5.84-6.13l4.54-.12c0-.57,0-1.13,.01-1.69,.02-2.27,.03-4.47,.03-6.55,0-3.31,2.69-6,6-6h13.62c1.62,0,3.17,.66,4.3,1.82s1.74,2.73,1.69,4.35c-.07,2.45-.14,4.95-.2,7.42l3.09-.08c0-2.57-.07-5.1-.13-7.27-.05-1.63,.57-3.21,1.72-4.37,1.13-1.15,2.67-1.8,4.28-1.8,.02,0,13.48,.13,13.48,.13,3.29,.03,5.94,2.71,5.94,6v3.12c0,1.12,0,2.29-.02,3.48,0,0,4.54-.11,4.59-.11,1.54,0,3.03,.59,4.14,1.66,1.15,1.1,1.82,2.62,1.85,4.21l.27,12.43c.07,3.31-2.55,6.05-5.86,6.13l-5.97,.14c-.31,2.65-.8,5.01-1.57,7.09,1.27,.11,2.49,.62,3.46,1.48,1.31,1.15,2.05,2.82,2.03,4.56l-.13,13.42c-.03,3.11-2.44,5.69-5.54,5.92-7.1,.54-13.41,.82-18.73,.82Z"/></g><g><path class="cls-2" d="M184.21,155.54c-1.11,0-1.98-.02-2.81-.08-5.01-.33-12.22-1.58-18.16-5.67-6.19-4.26-9.33-10.65-8.85-17.99l.02-.23c.14-2.18,.68-4.4,1.56-6.55-1.47-.03-2.91-.05-4.24-.07-1.6-.02-3.13-.68-4.25-1.84-1.11-1.16-1.72-2.71-1.67-4.31l.24-9.2c.04-1.63,.74-3.17,1.94-4.27,1.11-1.02,2.56-1.58,4.05-1.58,.12,0,.24,0,.37,.01,18.1,1.1,31,1.68,39.46,1.77,3.2,.03,5.81,2.57,5.93,5.77l.34,8.74c.07,1.7-.59,3.34-1.81,4.53-1.12,1.1-2.63,1.7-4.19,1.7-.13,0-.26,0-.39-.01l-.54-.04c-.86-.06-1.7-.08-2.5-.08-10.01,0-12.48,4.3-12.59,5.95,0,0,0,.02,0,.04,.2,.22,1.52,1.48,6.46,1.8,.83,.05,1.67,.08,2.49,.08s1.6-.03,2.39-.08c.13,0,.26-.01,.39-.01,1.77,0,3.46,.78,4.6,2.15,1.23,1.47,1.68,3.43,1.23,5.28l-2.36,9.61c-.66,2.67-3.03,4.55-5.78,4.57h-1.32Z"/><path class="cls-2" d="M184.21,155.54c-1.11,0-1.98-.02-2.81-.08-5.01-.33-12.22-1.58-18.16-5.67-6.19-4.26-9.33-10.65-8.85-17.99l.02-.23c.14-2.18,.68-4.4,1.56-6.55-1.47-.03-2.91-.05-4.24-.07-1.6-.02-3.13-.68-4.25-1.84-1.11-1.16-1.72-2.71-1.67-4.31l.24-9.2c.04-1.63,.74-3.17,1.94-4.27,1.11-1.02,2.56-1.58,4.05-1.58,.12,0,.24,0,.37,.01,18.1,1.1,31,1.68,39.46,1.77,3.2,.03,5.81,2.57,5.93,5.77l.34,8.74c.07,1.7-.59,3.34-1.81,4.53-1.12,1.1-2.63,1.7-4.19,1.7-.13,0-.26,0-.39-.01l-.54-.04c-.86-.06-1.7-.08-2.5-.08-10.01,0-12.48,4.3-12.59,5.95,0,0,0,.02,0,.04,.2,.22,1.52,1.48,6.46,1.8,.83,.05,1.67,.08,2.49,.08s1.6-.03,2.39-.08c.13,0,.26-.01,.39-.01,1.77,0,3.46,.78,4.6,2.15,1.23,1.47,1.68,3.43,1.23,5.28l-2.36,9.61c-.66,2.67-3.03,4.55-5.78,4.57h-1.32Z"/><path class="cls-2" d="M184.21,160.54c-1.23,0-2.19-.03-3.14-.09-5.64-.37-13.8-1.8-20.67-6.54-7.58-5.22-11.59-13.4-11-22.44l.02-.24c.03-.51,.08-1.01,.15-1.52-2.15-.45-4.16-1.54-5.69-3.14-2.03-2.11-3.15-4.99-3.07-7.91l.24-9.2c.08-2.97,1.38-5.82,3.56-7.82,2.04-1.87,4.67-2.89,7.43-2.89,.23,0,.47,0,.71,.02,17.99,1.1,30.81,1.67,39.17,1.76,5.87,.06,10.65,4.7,10.88,10.57l.34,8.74c.12,3.11-1.08,6.13-3.31,8.3-1.53,1.49-3.43,2.49-5.48,2.9,.71,.52,1.36,1.13,1.94,1.82,2.24,2.68,3.08,6.3,2.25,9.69l-2.36,9.61c-1.2,4.89-5.56,8.33-10.59,8.37,0,0-1.35,0-1.36,0Z"/><path class="cls-2" d="M184.21,155.54c-1.11,0-1.98-.02-2.81-.08-5.01-.33-12.22-1.58-18.16-5.67-6.19-4.26-9.33-10.65-8.85-17.99l.02-.23c.14-2.18,.68-4.4,1.56-6.55-1.47-.03-2.91-.05-4.24-.07-1.6-.02-3.13-.68-4.25-1.84-1.11-1.16-1.72-2.71-1.67-4.31l.24-9.2c.04-1.63,.74-3.17,1.94-4.27,1.11-1.02,2.56-1.58,4.05-1.58,.12,0,.24,0,.37,.01,18.1,1.1,31,1.68,39.46,1.77,3.2,.03,5.81,2.57,5.93,5.77l.34,8.74c.07,1.7-.59,3.34-1.81,4.53-1.12,1.1-2.63,1.7-4.19,1.7-.13,0-.26,0-.39-.01l-.54-.04c-.86-.06-1.7-.08-2.5-.08-10.01,0-12.48,4.3-12.59,5.95,0,0,0,.02,0,.04,.2,.22,1.52,1.48,6.46,1.8,.83,.05,1.67,.08,2.49,.08s1.6-.03,2.39-.08c.13,0,.26-.01,.39-.01,1.77,0,3.46,.78,4.6,2.15,1.23,1.47,1.68,3.43,1.23,5.28l-2.36,9.61c-.66,2.67-3.03,4.55-5.78,4.57h-1.32Z"/></g><rect class="cls-2" x="175.47" y="33.5" width="16" height="16" rx="6" ry="6"/><rect class="cls-2" x="232.47" y="33.5" width="20" height="21" rx="6" ry="6"/></g><g><g><path class="cls-2" d="M27.77,134.05c-1.96,0-3.84-.97-4.97-2.64l-11.48-16.99c-1.1-1.62-1.33-3.68-.63-5.51s2.26-3.2,4.16-3.67c8.5-2.1,14.02-4.49,17.64-6.76l-6.64,.36c-.11,0-.22,0-.32,0-1.48,0-2.9-.54-4.01-1.54-1.18-1.06-1.9-2.55-1.98-4.14L15.8,23.97c-.09-1.59,.46-3.15,1.53-4.33s2.55-1.9,4.14-1.98l87.32-4.71c.11,0,.22,0,.32,0,1.48,0,2.9,.54,4.01,1.53,1.18,1.06,1.9,2.55,1.98,4.14l3.72,68.85,6.48,1.96c2.42,.73,4.12,2.9,4.25,5.42,1.57,29.11-9.38,31.96-25.02,32.8l-15.63,.84c-.52,.03-1.03,.04-1.53,.04-11.05,0-18.03-7.04-18.67-18.82l-.35-6.45c-4.69,10.87-15.3,25.02-39.22,30.63-.46,.11-.92,.16-1.37,.16Z"/><path class="cls-2" d="M27.77,134.05c-1.96,0-3.84-.97-4.97-2.64l-11.48-16.99c-1.1-1.62-1.33-3.68-.63-5.51s2.26-3.2,4.16-3.67c8.5-2.1,14.02-4.49,17.64-6.76l-6.64,.36c-.11,0-.22,0-.32,0-1.48,0-2.9-.54-4.01-1.54-1.18-1.06-1.9-2.55-1.98-4.14L15.8,23.97c-.09-1.59,.46-3.15,1.53-4.33s2.55-1.9,4.14-1.98l87.32-4.71c.11,0,.22,0,.32,0,1.48,0,2.9,.54,4.01,1.53,1.18,1.06,1.9,2.55,1.98,4.14l3.72,68.85,6.48,1.96c2.42,.73,4.12,2.9,4.25,5.42,1.57,29.11-9.38,31.96-25.02,32.8l-15.63,.84c-.52,.03-1.03,.04-1.53,.04-11.05,0-18.03-7.04-18.67-18.82l-.35-6.45c-4.69,10.87-15.3,25.02-39.22,30.63-.46,.11-.92,.16-1.37,.16Z"/><path class="cls-2" d="M27.76,144.05c-5.32,0-10.27-2.63-13.25-7.04L3.03,120.02c-2.93-4.33-3.55-9.83-1.68-14.7,1.55-4.04,4.66-7.24,8.57-8.94-.2-.87-.32-1.77-.37-2.68L5.81,24.51c-.23-4.27,1.21-8.37,4.07-11.55,2.85-3.18,6.78-5.06,11.04-5.29L108.25,2.95c.29-.02,.58-.02,.86-.02,3.95,0,7.75,1.45,10.69,4.09,3.18,2.85,5.06,6.78,5.29,11.04l3.34,61.85c6.3,2.01,10.76,7.76,11.11,14.38,.92,17.09-1.79,27.46-9.08,34.68-7.76,7.69-17.54,8.22-25.39,8.64l-15.63,.84c-.7,.04-1.39,.06-2.07,.06-10.19,0-18.45-4.23-23.46-11.68-8.45,8.06-19.34,13.69-32.49,16.78-1.2,.28-2.43,.42-3.65,.42Z"/><path class="cls-2" d="M27.77,134.05c-1.96,0-3.84-.97-4.97-2.64l-11.48-16.99c-1.1-1.62-1.33-3.68-.63-5.51s2.26-3.2,4.16-3.67c8.5-2.1,14.02-4.49,17.64-6.76l-6.64,.36c-.11,0-.22,0-.32,0-1.48,0-2.9-.54-4.01-1.54-1.18-1.06-1.9-2.55-1.98-4.14L15.8,23.97c-.09-1.59,.46-3.15,1.53-4.33s2.55-1.9,4.14-1.98l87.32-4.71c.11,0,.22,0,.32,0,1.48,0,2.9,.54,4.01,1.53,1.18,1.06,1.9,2.55,1.98,4.14l3.72,68.85,6.48,1.96c2.42,.73,4.12,2.9,4.25,5.42,1.57,29.11-9.38,31.96-25.02,32.8l-15.63,.84c-.52,.03-1.03,.04-1.53,.04-11.05,0-18.03-7.04-18.67-18.82l-.35-6.45c-4.69,10.87-15.3,25.02-39.22,30.63-.46,.11-.92,.16-1.37,.16Z"/></g><g><g><path class="cls-2" d="M202.14,139.49c-2.78,0-5.26-1.94-5.86-4.74-1.06-4.9-1.77-10.68-2.12-17.16-.73-13.58,.28-26.6,.75-31.57,.29-3.1,2.9-5.43,5.97-5.43,.12,0,.25,0,.38,.01l10.99,.68c.86,.05,1.68,.29,2.42,.68l29.65-1.6c.11,0,.22,0,.32,0,1.48,0,2.9,.54,4.01,1.54,1.18,1.06,1.9,2.55,1.98,4.14l.49,9.12c.03,.55-.01,1.08-.12,1.59,.24,.6,.38,1.25,.42,1.9l.49,9.07c.14,2.63-1.44,4.96-3.76,5.89,1.42,.94,2.82,1.96,4.2,3.05,2.21,1.76,2.89,4.83,1.63,7.37l-4.85,9.73c-.81,1.63-2.33,2.81-4.12,3.19-.42,.09-.84,.13-1.25,.13-1.38,0-2.72-.47-3.81-1.36-.44-.36-.88-.73-1.33-1.1-2.55,1.93-6.19,3.4-11.39,3.68l-.47,.03c-.47,.03-.93,.04-1.37,.04-3.38,0-6.3-.7-8.75-1.87-.82,.67-1.82,1.12-2.88,1.28l-10.71,1.64c-.31,.05-.61,.07-.92,.07Z"/><path class="cls-2" d="M267.66,136.88c-12.11,0-19.46-7.48-20.16-20.52v-.26c-.22-3.86-.48-9.7-.75-15.88-.24-5.5-.5-11.35-.75-16.47-.08-1.62,.5-3.21,1.61-4.39,1.11-1.19,2.65-1.87,4.27-1.9,0,0,11.87-.21,11.9-.21,1.57,0,3.09,.62,4.21,1.72,1.15,1.13,1.79,2.68,1.79,4.29-.02,8.66,.31,19,.53,25.85l.11,3.53s.04,.64,.04,.72c3.51-1.01,7.9-5.14,11.2-14.27,.68-1.89,2.27-3.32,4.23-3.79,.47-.11,.94-.17,1.41-.17,1.5,0,2.96,.56,4.09,1.61l9.3,8.65c1.87,1.73,2.43,4.46,1.41,6.79-8.45,19.37-22.51,24.1-32.82,24.66-.55,.03-1.09,.04-1.64,.04Z"/><path class="cls-2" d="M315.07,132.79c-4.71,0-9.26-1.97-12.81-5.56-4.92-4.94-7.52-14.64-8.43-31.46-.19-3.5-.31-7.33-.36-11.72-.04-3.29,2.58-6,5.86-6.07,0,0,11.99-.27,12.04-.27,1.64,0,3.22,.67,4.35,1.87,1.17,1.23,1.76,2.89,1.63,4.58-.35,4.58-.44,9.21-.28,13.48,.73-.52,1.57-.88,2.49-1.04,.34-.06,.68-.09,1.01-.09,1.86,0,3.64,.87,4.79,2.39l2.8,3.71c-1.85-4.56-4.29-8.64-7.37-11.37-1.51-1.34-2.25-3.35-1.96-5.35s1.57-3.72,3.39-4.57l10.27-4.81c.81-.38,1.68-.57,2.54-.57,1.48,0,2.93,.54,4.06,1.59,10.43,9.6,16.05,28.24,16.57,37.82l.03,.48c.13,2.42-1.21,4.67-3.38,5.72l-11.04,5.33c-.83,.4-1.72,.6-2.61,.6-1.02,0-2.05-.26-2.96-.78-1.71-.97-2.84-2.72-3.01-4.69-.04-.46-.09-.93-.14-1.41-5.28,9.96-12.45,11.93-16.57,12.16-.31,.02-.61,.02-.92,.02Z"/></g><g><path class="cls-2" d="M202.14,139.49c-2.78,0-5.26-1.94-5.86-4.74-1.06-4.9-1.77-10.68-2.12-17.16-.73-13.58,.28-26.6,.75-31.57,.29-3.1,2.9-5.43,5.97-5.43,.12,0,.25,0,.38,.01l10.99,.68c.86,.05,1.68,.29,2.42,.68l29.65-1.6c.11,0,.22,0,.32,0,1.48,0,2.9,.54,4.01,1.54,1.18,1.06,1.9,2.55,1.98,4.14l.49,9.12c.03,.55-.01,1.08-.12,1.59,.24,.6,.38,1.25,.42,1.9l.49,9.07c.14,2.63-1.44,4.96-3.76,5.89,1.42,.94,2.82,1.96,4.2,3.05,2.21,1.76,2.89,4.83,1.63,7.37l-4.85,9.73c-.81,1.63-2.33,2.81-4.12,3.19-.42,.09-.84,.13-1.25,.13-1.38,0-2.72-.47-3.81-1.36-.44-.36-.88-.73-1.33-1.1-2.55,1.93-6.19,3.4-11.39,3.68l-.47,.03c-.47,.03-.93,.04-1.37,.04-3.38,0-6.3-.7-8.75-1.87-.82,.67-1.82,1.12-2.88,1.28l-10.71,1.64c-.31,.05-.61,.07-.92,.07Z"/><path class="cls-2" d="M267.66,136.88c-12.11,0-19.46-7.48-20.16-20.52v-.26c-.22-3.86-.48-9.7-.75-15.88-.24-5.5-.5-11.35-.75-16.47-.08-1.62,.5-3.21,1.61-4.39,1.11-1.19,2.65-1.87,4.27-1.9,0,0,11.87-.21,11.9-.21,1.57,0,3.09,.62,4.21,1.72,1.15,1.13,1.79,2.68,1.79,4.29-.02,8.66,.31,19,.53,25.85l.11,3.53s.04,.64,.04,.72c3.51-1.01,7.9-5.14,11.2-14.27,.68-1.89,2.27-3.32,4.23-3.79,.47-.11,.94-.17,1.41-.17,1.5,0,2.96,.56,4.09,1.61l9.3,8.65c1.87,1.73,2.43,4.46,1.41,6.79-8.45,19.37-22.51,24.1-32.82,24.66-.55,.03-1.09,.04-1.64,.04Z"/><path class="cls-2" d="M315.07,132.79c-4.71,0-9.26-1.97-12.81-5.56-4.92-4.94-7.52-14.64-8.43-31.46-.19-3.5-.31-7.33-.36-11.72-.04-3.29,2.58-6,5.86-6.07,0,0,11.99-.27,12.04-.27,1.64,0,3.22,.67,4.35,1.87,1.17,1.23,1.76,2.89,1.63,4.58-.35,4.58-.44,9.21-.28,13.48,.73-.52,1.57-.88,2.49-1.04,.34-.06,.68-.09,1.01-.09,1.86,0,3.64,.87,4.79,2.39l2.8,3.71c-1.85-4.56-4.29-8.64-7.37-11.37-1.51-1.34-2.25-3.35-1.96-5.35s1.57-3.72,3.39-4.57l10.27-4.81c.81-.38,1.68-.57,2.54-.57,1.48,0,2.93,.54,4.06,1.59,10.43,9.6,16.05,28.24,16.57,37.82l.03,.48c.13,2.42-1.21,4.67-3.38,5.72l-11.04,5.33c-.83,.4-1.72,.6-2.61,.6-1.02,0-2.05-.26-2.96-.78-1.71-.97-2.84-2.72-3.01-4.69-.04-.46-.09-.93-.14-1.41-5.28,9.96-12.45,11.93-16.57,12.16-.31,.02-.61,.02-.92,.02Z"/></g><g><path class="cls-2" d="M202.14,145.49c-5.61,0-10.54-3.98-11.72-9.47-1.12-5.21-1.88-11.3-2.25-18.11-.75-13.97,.29-27.35,.77-32.46,.59-6.2,5.72-10.87,11.94-10.87,.25,0,.49,0,.75,.02l11,.68c1.06,.06,2.09,.27,3.08,.6l28.3-1.53c.21-.01,.43-.02,.65-.02,2.96,0,5.81,1.09,8.02,3.07,2.38,2.14,3.79,5.08,3.96,8.28l.49,9.12c.03,.47,.02,.93,0,1.4,.16,.69,.26,1.39,.3,2.1l.49,9.07c.1,1.88-.24,3.7-.94,5.35,3.69,3.59,4.72,9.28,2.38,13.96l-4.85,9.73c-1.64,3.29-4.64,5.62-8.23,6.38-.82,.18-1.67,.27-2.51,.27-1.9,0-3.77-.46-5.45-1.31-3.11,1.46-6.71,2.3-10.75,2.52l-.46,.03c-.6,.03-1.16,.05-1.71,.05-2.96,0-5.77-.43-8.37-1.27-.76,.28-1.55,.49-2.36,.61l-10.71,1.64c-.61,.09-1.22,.14-1.82,.14Z"/><path class="cls-2" d="M267.66,142.88c-15.26,0-25.28-10.04-26.15-26.19v-.24c-.22-3.84-.47-9.58-.74-15.65l-.02-.52c-.24-5.43-.49-11.18-.74-16.23-.16-3.23,1.02-6.43,3.22-8.78,2.2-2.36,5.32-3.74,8.55-3.8q11.92-.21,12.01-.21c3.17,0,6.16,1.23,8.42,3.45,2.28,2.25,3.59,5.37,3.58,8.57,0,4.43,.07,9.3,.18,13.91,.02-.04,.03-.09,.05-.14,1.37-3.8,4.54-6.63,8.46-7.58,.93-.22,1.88-.34,2.82-.34,3.04,0,5.94,1.14,8.17,3.21l9.3,8.65c3.72,3.46,4.86,8.92,2.83,13.58-7.55,17.31-21.04,27.34-37.99,28.25-.66,.04-1.31,.05-1.96,.05Z"/><path class="cls-2" d="M315.07,138.79c-6.33,0-12.39-2.6-17.08-7.33-6.11-6.13-9.15-16.71-10.16-35.36-.19-3.57-.31-7.48-.37-11.96-.08-6.55,5.18-12,11.73-12.15,12.06-.27,12.08-.27,12.17-.27,3.28,0,6.45,1.36,8.71,3.74,.06,.06,.11,.12,.17,.18l9.72-4.55c1.6-.75,3.32-1.13,5.09-1.13,3.02,0,5.91,1.13,8.13,3.17,11.78,10.85,17.91,31.04,18.5,41.92l.03,.49c.26,4.84-2.4,9.33-6.77,11.44l-11.04,5.33c-1.62,.78-3.42,1.19-5.22,1.19-2.07,0-4.12-.54-5.93-1.57-.24-.14-.48-.29-.71-.44-5.7,5.73-11.93,7.07-15.72,7.27-.42,.02-.83,.03-1.24,.03Z"/></g><g><path class="cls-2" d="M202.14,139.49c-2.78,0-5.26-1.94-5.86-4.74-1.06-4.9-1.77-10.68-2.12-17.16-.73-13.58,.28-26.6,.75-31.57,.29-3.1,2.9-5.43,5.97-5.43,.12,0,.25,0,.38,.01l10.99,.68c.86,.05,1.68,.29,2.42,.68l29.65-1.6c.11,0,.22,0,.32,0,1.48,0,2.9,.54,4.01,1.54,1.18,1.06,1.9,2.55,1.98,4.14l.49,9.12c.03,.55-.01,1.08-.12,1.59,.24,.6,.38,1.25,.42,1.9l.49,9.07c.14,2.63-1.44,4.96-3.76,5.89,1.42,.94,2.82,1.96,4.2,3.05,2.21,1.76,2.89,4.83,1.63,7.37l-4.85,9.73c-.81,1.63-2.33,2.81-4.12,3.19-.42,.09-.84,.13-1.25,.13-1.38,0-2.72-.47-3.81-1.36-.44-.36-.88-.73-1.33-1.1-2.55,1.93-6.19,3.4-11.39,3.68l-.47,.03c-.47,.03-.93,.04-1.37,.04-3.38,0-6.3-.7-8.75-1.87-.82,.67-1.82,1.12-2.88,1.28l-10.71,1.64c-.31,.05-.61,.07-.92,.07Z"/><path class="cls-2" d="M267.66,136.88c-12.11,0-19.46-7.48-20.16-20.52v-.26c-.22-3.86-.48-9.7-.75-15.88-.24-5.5-.5-11.35-.75-16.47-.08-1.62,.5-3.21,1.61-4.39,1.11-1.19,2.65-1.87,4.27-1.9,0,0,11.87-.21,11.9-.21,1.57,0,3.09,.62,4.21,1.72,1.15,1.13,1.79,2.68,1.79,4.29-.02,8.66,.31,19,.53,25.85l.11,3.53s.04,.64,.04,.72c3.51-1.01,7.9-5.14,11.2-14.27,.68-1.89,2.27-3.32,4.23-3.79,.47-.11,.94-.17,1.41-.17,1.5,0,2.96,.56,4.09,1.61l9.3,8.65c1.87,1.73,2.43,4.46,1.41,6.79-8.45,19.37-22.51,24.1-32.82,24.66-.55,.03-1.09,.04-1.64,.04Z"/><path class="cls-2" d="M315.07,132.79c-4.71,0-9.26-1.97-12.81-5.56-4.92-4.94-7.52-14.64-8.43-31.46-.19-3.5-.31-7.33-.36-11.72-.04-3.29,2.58-6,5.86-6.07,0,0,11.99-.27,12.04-.27,1.64,0,3.22,.67,4.35,1.87,1.17,1.23,1.76,2.89,1.63,4.58-.35,4.58-.44,9.21-.28,13.48,.73-.52,1.57-.88,2.49-1.04,.34-.06,.68-.09,1.01-.09,1.86,0,3.64,.87,4.79,2.39l2.8,3.71c-1.85-4.56-4.29-8.64-7.37-11.37-1.51-1.34-2.25-3.35-1.96-5.35s1.57-3.72,3.39-4.57l10.27-4.81c.81-.38,1.68-.57,2.54-.57,1.48,0,2.93,.54,4.06,1.59,10.43,9.6,16.05,28.24,16.57,37.82l.03,.48c.13,2.42-1.21,4.67-3.38,5.72l-11.04,5.33c-.83,.4-1.72,.6-2.61,.6-1.02,0-2.05-.26-2.96-.78-1.71-.97-2.84-2.72-3.01-4.69-.04-.46-.09-.93-.14-1.41-5.28,9.96-12.45,11.93-16.57,12.16-.31,.02-.61,.02-.92,.02Z"/></g></g><g><g><path class="cls-2" d="M148.71,73.67c-1.35,0-2.7-.46-3.8-1.35l-9.35-7.64c-1.57-1.28-2.38-3.26-2.17-5.27,.21-2.01,1.42-3.78,3.22-4.71,5.59-2.88,10.26-6.13,14.13-9.82-2.58-1.31-5.14-2.47-7.67-3.48-1.78-.71-3.12-2.23-3.59-4.09-.47-1.86-.03-3.83,1.19-5.31l7.19-8.69c1.16-1.4,2.87-2.17,4.62-2.17,.68,0,1.37,.12,2.04,.36,2.49,.9,5.31,2.16,8.44,3.76,.97-2.85,1.77-5.88,2.39-9.06,.32-1.63,1.3-3.05,2.71-3.93,.96-.6,2.07-.91,3.18-.91,.51,0,1.03,.07,1.54,.2l11.26,2.99c3.19,.85,5.1,4.12,4.27,7.31-1.57,6.01-3.27,11.16-5.25,15.85,3.71,2.71,7.02,5.45,9.57,7.94,2.23,2.18,2.43,5.7,.45,8.11l-7.69,9.35c-1.08,1.31-2.67,2.11-4.37,2.18-.09,0-.18,0-.27,0-1.6,0-3.14-.64-4.27-1.79-1.85-1.88-3.88-3.75-6.07-5.58-5.24,5.88-11.53,10.91-18.77,14.99-.92,.52-1.93,.77-2.94,.77Z"/><path class="cls-2" d="M190.05,52.3c-3.17,0-5.81-2.48-5.99-5.68l-.63-11.7c-.09-1.59,.46-3.15,1.53-4.33,1.06-1.18,2.55-1.9,4.14-1.98l45.96-2.48c.11,0,.22,0,.33,0,3.17,0,5.81,2.48,5.99,5.68l.63,11.7c.09,1.59-.46,3.15-1.53,4.33-1.06,1.18-2.55,1.9-4.14,1.98l-45.96,2.48c-.11,0-.22,0-.33,0Z"/><path class="cls-2" d="M245.49,67.86c-1.36,0-2.71-.46-3.81-1.36l-9.18-7.54c-1.56-1.28-2.37-3.25-2.16-5.26,.21-2,1.41-3.77,3.19-4.7,6.42-3.35,9.84-6.45,11.63-11.19l-5.92,.32c-.11,0-.22,0-.33,0-3.17,0-5.81-2.48-5.99-5.68l-.53-9.8c-.18-3.31,2.36-6.14,5.67-6.31l8.63-.47-.11-2.57c-.14-3.28,2.39-6.06,5.67-6.24l11.12-.6c.11,0,.22,0,.32,0,1.5,0,2.95,.56,4.06,1.58,1.19,1.1,1.89,2.62,1.93,4.24l.07,2.35,11.3-.61c.11,0,.22,0,.32,0,1.48,0,2.9,.54,4.01,1.53,1.18,1.06,1.9,2.55,1.98,4.14,.58,10.72,1.02,24.7-.14,30.39-1.37,6.6-5.87,14.63-19.51,15.48-1.5,.08-2.96,.16-4.58,.19-.04,0-.08,0-.12,0-2.42,0-4.61-1.45-5.54-3.7l-.61-1.46c-2.34,2.24-5.06,4.34-8.17,6.32-.99,.63-2.11,.94-3.22,.94Z"/><path class="cls-2" d="M287.55,47.04c-3.17,0-5.81-2.48-5.99-5.68l-.63-11.7c-.09-1.59,.46-3.15,1.53-4.33,1.06-1.18,2.55-1.9,4.14-1.98l45.96-2.48c.11,0,.22,0,.32,0,1.48,0,2.9,.54,4.01,1.54,1.18,1.06,1.9,2.55,1.98,4.14l.63,11.7c.18,3.31-2.36,6.14-5.67,6.31l-45.96,2.48c-.11,0-.22,0-.33,0Z"/></g><g><path class="cls-2" d="M148.71,73.67c-1.35,0-2.7-.46-3.8-1.35l-9.35-7.64c-1.57-1.28-2.38-3.26-2.17-5.27,.21-2.01,1.42-3.78,3.22-4.71,5.59-2.88,10.26-6.13,14.13-9.82-2.58-1.31-5.14-2.47-7.67-3.48-1.78-.71-3.12-2.23-3.59-4.09-.47-1.86-.03-3.83,1.19-5.31l7.19-8.69c1.16-1.4,2.87-2.17,4.62-2.17,.68,0,1.37,.12,2.04,.36,2.49,.9,5.31,2.16,8.44,3.76,.97-2.85,1.77-5.88,2.39-9.06,.32-1.63,1.3-3.05,2.71-3.93,.96-.6,2.07-.91,3.18-.91,.51,0,1.03,.07,1.54,.2l11.26,2.99c3.19,.85,5.1,4.12,4.27,7.31-1.57,6.01-3.27,11.16-5.25,15.85,3.71,2.71,7.02,5.45,9.57,7.94,2.23,2.18,2.43,5.7,.45,8.11l-7.69,9.35c-1.08,1.31-2.67,2.11-4.37,2.18-.09,0-.18,0-.27,0-1.6,0-3.14-.64-4.27-1.79-1.85-1.88-3.88-3.75-6.07-5.58-5.24,5.88-11.53,10.91-18.77,14.99-.92,.52-1.93,.77-2.94,.77Z"/><path class="cls-2" d="M190.05,52.3c-3.17,0-5.81-2.48-5.99-5.68l-.63-11.7c-.09-1.59,.46-3.15,1.53-4.33,1.06-1.18,2.55-1.9,4.14-1.98l45.96-2.48c.11,0,.22,0,.33,0,3.17,0,5.81,2.48,5.99,5.68l.63,11.7c.09,1.59-.46,3.15-1.53,4.33-1.06,1.18-2.55,1.9-4.14,1.98l-45.96,2.48c-.11,0-.22,0-.33,0Z"/><path class="cls-2" d="M245.49,67.86c-1.36,0-2.71-.46-3.81-1.36l-9.18-7.54c-1.56-1.28-2.37-3.25-2.16-5.26,.21-2,1.41-3.77,3.19-4.7,6.42-3.35,9.84-6.45,11.63-11.19l-5.92,.32c-.11,0-.22,0-.33,0-3.17,0-5.81-2.48-5.99-5.68l-.53-9.8c-.18-3.31,2.36-6.14,5.67-6.31l8.63-.47-.11-2.57c-.14-3.28,2.39-6.06,5.67-6.24l11.12-.6c.11,0,.22,0,.32,0,1.5,0,2.95,.56,4.06,1.58,1.19,1.1,1.89,2.62,1.93,4.24l.07,2.35,11.3-.61c.11,0,.22,0,.32,0,1.48,0,2.9,.54,4.01,1.53,1.18,1.06,1.9,2.55,1.98,4.14,.58,10.72,1.02,24.7-.14,30.39-1.37,6.6-5.87,14.63-19.51,15.48-1.5,.08-2.96,.16-4.58,.19-.04,0-.08,0-.12,0-2.42,0-4.61-1.45-5.54-3.7l-.61-1.46c-2.34,2.24-5.06,4.34-8.17,6.32-.99,.63-2.11,.94-3.22,.94Z"/><path class="cls-2" d="M287.55,47.04c-3.17,0-5.81-2.48-5.99-5.68l-.63-11.7c-.09-1.59,.46-3.15,1.53-4.33,1.06-1.18,2.55-1.9,4.14-1.98l45.96-2.48c.11,0,.22,0,.32,0,1.48,0,2.9,.54,4.01,1.54,1.18,1.06,1.9,2.55,1.98,4.14l.63,11.7c.18,3.31-2.36,6.14-5.67,6.31l-45.96,2.48c-.11,0-.22,0-.33,0Z"/></g><g><path class="cls-2" d="M148.71,79.67c-2.76,0-5.46-.96-7.59-2.71l-9.35-7.64c-3.14-2.57-4.77-6.51-4.34-10.54,.42-4.04,2.83-7.56,6.44-9.41,1.95-1.01,3.77-2.05,5.46-3.14-2.79-1.6-4.85-4.29-5.65-7.44-.94-3.7-.05-7.67,2.39-10.62l7.2-8.69c2.29-2.76,5.66-4.35,9.24-4.35,1.39,0,2.77,.24,4.08,.72,.81,.29,1.66,.62,2.53,.98,.13-.59,.26-1.19,.38-1.79,.63-3.25,2.61-6.11,5.41-7.87,1.91-1.2,4.11-1.83,6.37-1.83,1.04,0,2.07,.13,3.08,.4l11.26,2.99c6.37,1.69,10.2,8.25,8.54,14.62-1.17,4.5-2.43,8.57-3.81,12.32,2.46,1.95,4.67,3.87,6.51,5.67,4.43,4.32,4.82,11.44,.89,16.21l-7.69,9.35c-2.16,2.62-5.34,4.21-8.73,4.36-.18,0-.36,.01-.54,.01-3.19,0-6.31-1.31-8.55-3.58-.48-.49-.98-.98-1.49-1.47-4.75,4.54-10.15,8.53-16.12,11.9-1.8,1.01-3.83,1.55-5.89,1.55Z"/><path class="cls-2" d="M190.05,58.3c-6.37,0-11.63-4.99-11.98-11.35l-.63-11.7c-.17-3.2,.91-6.28,3.05-8.66,2.14-2.38,5.08-3.79,8.28-3.97l45.96-2.48c.22-.01,.44-.02,.65-.02,6.37,0,11.63,4.99,11.98,11.35l.63,11.7c.17,3.2-.91,6.28-3.05,8.66-2.14,2.38-5.08,3.79-8.28,3.97l-45.96,2.48c-.22,.01-.44,.02-.65,.02Z"/><path class="cls-2" d="M245.49,73.86c-2.77,0-5.48-.97-7.62-2.73l-9.18-7.54c-3.12-2.56-4.74-6.49-4.32-10.51,.42-4.02,2.8-7.53,6.39-9.4,.77-.4,1.48-.79,2.12-1.17-3.38-1.97-5.72-5.55-5.94-9.73l-.53-9.8c-.17-3.2,.91-6.28,3.05-8.66,2.14-2.39,5.08-3.79,8.28-3.97l3.19-.17c1.25-4.98,5.64-8.81,11-9.1l11.12-.6c.21-.01,.43-.02,.65-.02,3.02,0,5.9,1.13,8.13,3.17,1.41,1.3,2.49,2.93,3.14,4.71l5.78-.31c.21-.01,.43-.02,.65-.02,2.96,0,5.81,1.09,8.02,3.07,2.38,2.14,3.79,5.08,3.97,8.28,.87,16.11,.78,26.85-.25,31.92-1.47,7.09-6.68,19.12-25.02,20.26-1.55,.08-3.1,.17-4.84,.2h-.23c-2.68,0-5.2-.88-7.24-2.42-1.22,.91-2.51,1.79-3.85,2.65-1.93,1.23-4.16,1.88-6.45,1.88Z"/><path class="cls-2" d="M287.55,53.04c-6.37,0-11.63-4.99-11.98-11.35l-.63-11.7c-.17-3.2,.91-6.28,3.05-8.66,2.14-2.38,5.08-3.79,8.28-3.97l45.96-2.48c.21-.01,.43-.02,.65-.02,2.96,0,5.81,1.09,8.02,3.07,2.38,2.14,3.79,5.08,3.97,8.28l.63,11.7c.36,6.61-4.73,12.27-11.34,12.63l-45.96,2.48c-.22,.01-.44,.02-.65,.02Z"/></g><g><path class="cls-2" d="M148.71,73.67c-1.35,0-2.7-.46-3.8-1.35l-9.35-7.64c-1.57-1.28-2.38-3.26-2.17-5.27,.21-2.01,1.42-3.78,3.22-4.71,5.59-2.88,10.26-6.13,14.13-9.82-2.58-1.31-5.14-2.47-7.67-3.48-1.78-.71-3.12-2.23-3.59-4.09-.47-1.86-.03-3.83,1.19-5.31l7.19-8.69c1.16-1.4,2.87-2.17,4.62-2.17,.68,0,1.37,.12,2.04,.36,2.49,.9,5.31,2.16,8.44,3.76,.97-2.85,1.77-5.88,2.39-9.06,.32-1.63,1.3-3.05,2.71-3.93,.96-.6,2.07-.91,3.18-.91,.51,0,1.03,.07,1.54,.2l11.26,2.99c3.19,.85,5.1,4.12,4.27,7.31-1.57,6.01-3.27,11.16-5.25,15.85,3.71,2.71,7.02,5.45,9.57,7.94,2.23,2.18,2.43,5.7,.45,8.11l-7.69,9.35c-1.08,1.31-2.67,2.11-4.37,2.18-.09,0-.18,0-.27,0-1.6,0-3.14-.64-4.27-1.79-1.85-1.88-3.88-3.75-6.07-5.58-5.24,5.88-11.53,10.91-18.77,14.99-.92,.52-1.93,.77-2.94,.77Z"/><path class="cls-2" d="M190.05,52.3c-3.17,0-5.81-2.48-5.99-5.68l-.63-11.7c-.09-1.59,.46-3.15,1.53-4.33,1.06-1.18,2.55-1.9,4.14-1.98l45.96-2.48c.11,0,.22,0,.33,0,3.17,0,5.81,2.48,5.99,5.68l.63,11.7c.09,1.59-.46,3.15-1.53,4.33-1.06,1.18-2.55,1.9-4.14,1.98l-45.96,2.48c-.11,0-.22,0-.33,0Z"/><path class="cls-2" d="M245.49,67.86c-1.36,0-2.71-.46-3.81-1.36l-9.18-7.54c-1.56-1.28-2.37-3.25-2.16-5.26,.21-2,1.41-3.77,3.19-4.7,6.42-3.35,9.84-6.45,11.63-11.19l-5.92,.32c-.11,0-.22,0-.33,0-3.17,0-5.81-2.48-5.99-5.68l-.53-9.8c-.18-3.31,2.36-6.14,5.67-6.31l8.63-.47-.11-2.57c-.14-3.28,2.39-6.06,5.67-6.24l11.12-.6c.11,0,.22,0,.32,0,1.5,0,2.95,.56,4.06,1.58,1.19,1.1,1.89,2.62,1.93,4.24l.07,2.35,11.3-.61c.11,0,.22,0,.32,0,1.48,0,2.9,.54,4.01,1.53,1.18,1.06,1.9,2.55,1.98,4.14,.58,10.72,1.02,24.7-.14,30.39-1.37,6.6-5.87,14.63-19.51,15.48-1.5,.08-2.96,.16-4.58,.19-.04,0-.08,0-.12,0-2.42,0-4.61-1.45-5.54-3.7l-.61-1.46c-2.34,2.24-5.06,4.34-8.17,6.32-.99,.63-2.11,.94-3.22,.94Z"/><path class="cls-2" d="M287.55,47.04c-3.17,0-5.81-2.48-5.99-5.68l-.63-11.7c-.09-1.59,.46-3.15,1.53-4.33,1.06-1.18,2.55-1.9,4.14-1.98l45.96-2.48c.11,0,.22,0,.32,0,1.48,0,2.9,.54,4.01,1.54,1.18,1.06,1.9,2.55,1.98,4.14l.63,11.7c.18,3.31-2.36,6.14-5.67,6.31l-45.96,2.48c-.11,0-.22,0-.33,0Z"/></g></g><g><path class="cls-2" d="M135.46,140.15c-5.82,0-13.06,0-19.24-2.45-8.19-3.25-12.67-10.02-12.94-19.59-.09-2.41-.15-5.8-.18-9.83,0,0-4.07,.11-4.12,.11-1.54,0-3.02-.59-4.14-1.66-1.16-1.1-1.82-2.62-1.86-4.21l-.27-12.43c-.07-3.3,2.54-6.04,5.84-6.13l4.54-.12c0-.57,0-1.13,.01-1.69,.02-2.27,.03-4.47,.03-6.55,0-3.31,2.69-6,6-6h13.62c1.62,0,3.17,.66,4.3,1.82s1.74,2.73,1.69,4.35c-.07,2.45-.14,4.95-.2,7.42l3.09-.08c0-2.57-.07-5.1-.13-7.27-.05-1.63,.57-3.21,1.72-4.37,1.13-1.15,2.67-1.8,4.28-1.8,.02,0,13.48,.13,13.48,.13,3.29,.03,5.94,2.71,5.94,6v3.12c0,1.12,0,2.29-.02,3.48,0,0,4.54-.11,4.59-.11,1.54,0,3.03,.59,4.14,1.66,1.15,1.1,1.82,2.62,1.85,4.21l.27,12.43c.07,3.31-2.55,6.05-5.86,6.13l-5.97,.14c-.31,2.65-.8,5.01-1.57,7.09,1.27,.11,2.49,.62,3.46,1.48,1.31,1.15,2.05,2.82,2.03,4.56l-.13,13.42c-.03,3.11-2.44,5.69-5.54,5.92-7.1,.54-13.41,.82-18.73,.82Z"/><path class="cls-2" d="M135.46,140.15c-5.82,0-13.06,0-19.24-2.45-8.19-3.25-12.67-10.02-12.94-19.59-.09-2.41-.15-5.8-.18-9.83,0,0-4.07,.11-4.12,.11-1.54,0-3.02-.59-4.14-1.66-1.16-1.1-1.82-2.62-1.86-4.21l-.27-12.43c-.07-3.3,2.54-6.04,5.84-6.13l4.54-.12c0-.57,0-1.13,.01-1.69,.02-2.27,.03-4.47,.03-6.55,0-3.31,2.69-6,6-6h13.62c1.62,0,3.17,.66,4.3,1.82s1.74,2.73,1.69,4.35c-.07,2.45-.14,4.95-.2,7.42l3.09-.08c0-2.57-.07-5.1-.13-7.27-.05-1.63,.57-3.21,1.72-4.37,1.13-1.15,2.67-1.8,4.28-1.8,.02,0,13.48,.13,13.48,.13,3.29,.03,5.94,2.71,5.94,6v3.12c0,1.12,0,2.29-.02,3.48,0,0,4.54-.11,4.59-.11,1.54,0,3.03,.59,4.14,1.66,1.15,1.1,1.82,2.62,1.85,4.21l.27,12.43c.07,3.31-2.55,6.05-5.86,6.13l-5.97,.14c-.31,2.65-.8,5.01-1.57,7.09,1.27,.11,2.49,.62,3.46,1.48,1.31,1.15,2.05,2.82,2.03,4.56l-.13,13.42c-.03,3.11-2.44,5.69-5.54,5.92-7.1,.54-13.41,.82-18.73,.82Z"/><path class="cls-2" d="M135.46,146.15c-6.33,0-14.2,0-21.45-2.87-10.44-4.14-16.39-13.02-16.73-25-.04-1.12-.08-2.48-.11-4.03-2.42-.36-4.68-1.46-6.48-3.18-2.29-2.19-3.65-5.26-3.72-8.43l-.27-12.43c-.13-6.16,4.44-11.37,10.42-12.15,0-.84,0-1.66,0-2.46,0-6.62,5.38-12,12-12h13.62c2.69,0,5.32,.92,7.42,2.57,2.09-1.61,4.68-2.5,7.33-2.5t13.54,.13c6.55,.06,11.88,5.45,11.88,12v.58c2.56,.31,4.96,1.43,6.85,3.23,2.29,2.19,3.64,5.26,3.71,8.42l.27,12.43c.13,6.15-4.42,11.35-10.39,12.15,1.62,2.11,2.51,4.72,2.48,7.43l-.13,13.42c-.06,6.28-4.83,11.37-11.09,11.85-7.26,.55-13.71,.83-19.19,.83Z"/><path class="cls-2" d="M135.46,140.15c-5.82,0-13.06,0-19.24-2.45-8.19-3.25-12.67-10.02-12.94-19.59-.09-2.41-.15-5.8-.18-9.83,0,0-4.07,.11-4.12,.11-1.54,0-3.02-.59-4.14-1.66-1.16-1.1-1.82-2.62-1.86-4.21l-.27-12.43c-.07-3.3,2.54-6.04,5.84-6.13l4.54-.12c0-.57,0-1.13,.01-1.69,.02-2.27,.03-4.47,.03-6.55,0-3.31,2.69-6,6-6h13.62c1.62,0,3.17,.66,4.3,1.82s1.74,2.73,1.69,4.35c-.07,2.45-.14,4.95-.2,7.42l3.09-.08c0-2.57-.07-5.1-.13-7.27-.05-1.63,.57-3.21,1.72-4.37,1.13-1.15,2.67-1.8,4.28-1.8,.02,0,13.48,.13,13.48,.13,3.29,.03,5.94,2.71,5.94,6v3.12c0,1.12,0,2.29-.02,3.48,0,0,4.54-.11,4.59-.11,1.54,0,3.03,.59,4.14,1.66,1.15,1.1,1.82,2.62,1.85,4.21l.27,12.43c.07,3.31-2.55,6.05-5.86,6.13l-5.97,.14c-.31,2.65-.8,5.01-1.57,7.09,1.27,.11,2.49,.62,3.46,1.48,1.31,1.15,2.05,2.82,2.03,4.56l-.13,13.42c-.03,3.11-2.44,5.69-5.54,5.92-7.1,.54-13.41,.82-18.73,.82Z"/></g><g><path class="cls-2" d="M184.21,151.54c-1.11,0-1.98-.02-2.81-.08-5.01-.33-12.22-1.58-18.16-5.67-6.19-4.26-9.33-10.65-8.85-17.99l.02-.23c.14-2.18,.68-4.4,1.56-6.55-1.47-.03-2.91-.05-4.24-.07-1.6-.02-3.13-.68-4.25-1.84-1.11-1.16-1.72-2.71-1.67-4.31l.24-9.2c.04-1.63,.74-3.17,1.94-4.27,1.11-1.02,2.56-1.58,4.05-1.58,.12,0,.24,0,.37,.01,18.1,1.1,31,1.68,39.46,1.77,3.2,.03,5.81,2.57,5.93,5.77l.34,8.74c.07,1.7-.59,3.34-1.81,4.53-1.12,1.1-2.63,1.7-4.19,1.7-.13,0-.26,0-.39-.01l-.54-.04c-.86-.06-1.7-.08-2.5-.08-10.01,0-12.48,4.3-12.59,5.95,0,0,0,.02,0,.04,.2,.22,1.52,1.48,6.46,1.8,.83,.05,1.67,.08,2.49,.08s1.6-.03,2.39-.08c.13,0,.26-.01,.39-.01,1.77,0,3.46,.78,4.6,2.15,1.23,1.47,1.68,3.43,1.23,5.28l-2.36,9.61c-.66,2.67-3.03,4.55-5.78,4.57h-1.32Z"/><path class="cls-2" d="M184.21,151.54c-1.11,0-1.98-.02-2.81-.08-5.01-.33-12.22-1.58-18.16-5.67-6.19-4.26-9.33-10.65-8.85-17.99l.02-.23c.14-2.18,.68-4.4,1.56-6.55-1.47-.03-2.91-.05-4.24-.07-1.6-.02-3.13-.68-4.25-1.84-1.11-1.16-1.72-2.71-1.67-4.31l.24-9.2c.04-1.63,.74-3.17,1.94-4.27,1.11-1.02,2.56-1.58,4.05-1.58,.12,0,.24,0,.37,.01,18.1,1.1,31,1.68,39.46,1.77,3.2,.03,5.81,2.57,5.93,5.77l.34,8.74c.07,1.7-.59,3.34-1.81,4.53-1.12,1.1-2.63,1.7-4.19,1.7-.13,0-.26,0-.39-.01l-.54-.04c-.86-.06-1.7-.08-2.5-.08-10.01,0-12.48,4.3-12.59,5.95,0,0,0,.02,0,.04,.2,.22,1.52,1.48,6.46,1.8,.83,.05,1.67,.08,2.49,.08s1.6-.03,2.39-.08c.13,0,.26-.01,.39-.01,1.77,0,3.46,.78,4.6,2.15,1.23,1.47,1.68,3.43,1.23,5.28l-2.36,9.61c-.66,2.67-3.03,4.55-5.78,4.57h-1.32Z"/><path class="cls-2" d="M184.21,156.54c-1.23,0-2.19-.03-3.14-.09-5.64-.37-13.8-1.8-20.67-6.54-7.58-5.22-11.59-13.4-11-22.44l.02-.24c.03-.51,.08-1.01,.15-1.52-2.15-.45-4.16-1.54-5.69-3.14-2.03-2.11-3.15-4.99-3.07-7.91l.24-9.2c.08-2.97,1.38-5.82,3.56-7.82,2.04-1.87,4.67-2.89,7.43-2.89,.23,0,.47,0,.71,.02,17.99,1.1,30.81,1.67,39.17,1.76,5.87,.06,10.65,4.7,10.88,10.57l.34,8.74c.12,3.11-1.08,6.13-3.31,8.3-1.53,1.49-3.43,2.49-5.48,2.9,.71,.52,1.36,1.13,1.94,1.82,2.24,2.68,3.08,6.3,2.25,9.69l-2.36,9.61c-1.2,4.89-5.56,8.33-10.59,8.37,0,0-1.35,0-1.36,0Z"/><path class="cls-2" d="M184.21,151.54c-1.11,0-1.98-.02-2.81-.08-5.01-.33-12.22-1.58-18.16-5.67-6.19-4.26-9.33-10.65-8.85-17.99l.02-.23c.14-2.18,.68-4.4,1.56-6.55-1.47-.03-2.91-.05-4.24-.07-1.6-.02-3.13-.68-4.25-1.84-1.11-1.16-1.72-2.71-1.67-4.31l.24-9.2c.04-1.63,.74-3.17,1.94-4.27,1.11-1.02,2.56-1.58,4.05-1.58,.12,0,.24,0,.37,.01,18.1,1.1,31,1.68,39.46,1.77,3.2,.03,5.81,2.57,5.93,5.77l.34,8.74c.07,1.7-.59,3.34-1.81,4.53-1.12,1.1-2.63,1.7-4.19,1.7-.13,0-.26,0-.39-.01l-.54-.04c-.86-.06-1.7-.08-2.5-.08-10.01,0-12.48,4.3-12.59,5.95,0,0,0,.02,0,.04,.2,.22,1.52,1.48,6.46,1.8,.83,.05,1.67,.08,2.49,.08s1.6-.03,2.39-.08c.13,0,.26-.01,.39-.01,1.77,0,3.46,.78,4.6,2.15,1.23,1.47,1.68,3.43,1.23,5.28l-2.36,9.61c-.66,2.67-3.03,4.55-5.78,4.57h-1.32Z"/></g><rect class="cls-2" x="175.47" y="29.5" width="16" height="16" rx="6" ry="6"/><rect class="cls-2" x="232.47" y="29.5" width="20" height="21" rx="6" ry="6"/></g></g><g><g><path class="cls-1" d="M27.76,138.05c-3.27,0-6.4-1.61-8.28-4.4l-11.48-16.99c-1.83-2.71-2.22-6.14-1.05-9.19,1.17-3.05,3.76-5.33,6.93-6.12,1.53-.38,3.12-.81,4.72-1.29-1.83-1.75-2.93-4.14-3.07-6.68L11.8,24.18c-.14-2.65,.77-5.25,2.54-7.22s4.25-3.16,6.9-3.31l87.32-4.71c.18,0,.36-.01,.54-.01,2.46,0,4.84,.91,6.68,2.56,1.97,1.77,3.16,4.25,3.31,6.9l3.57,66.05,3.8,1.15c4.03,1.22,6.86,4.83,7.09,9.03,.82,15.2-1.37,24.21-7.31,30.1-6.14,6.08-14.29,6.53-21.49,6.91l-15.63,.84c-.59,.03-1.18,.05-1.74,.05-11.2,0-19.14-6.21-21.77-16.58-6.68,8.89-17.63,17.63-35.55,21.84-.76,.18-1.53,.26-2.28,.26Z"/><path class="cls-2" d="M88.57,122.49c-8.49,.46-13.38-3.82-13.88-13.11l-1.03-19.14-7.81,.42c-2.1,13.74-12.28,31.33-38.08,37.38l-11.48-16.99c19.39-4.79,26.86-11.67,29.06-19.29l-19.82,1.07-3.74-69.2,87.32-4.71,3.74,69.2-19.93,1.08,.66,12.23c.05,.91,.2,1.58,1.9,1.49l5.66-.31c1.81-.1,3.39-.3,3.15-4.83l-.46-8.61,19.75,5.98c1.36,25.26-6.56,25.8-19.36,26.49l-15.63,.84Zm2.19-85.76l-48.81,2.64,.2,3.62,48.81-2.64-.2-3.62Zm.86,15.97l-48.81,2.64,.2,3.62,48.81-2.64-.2-3.62Zm.87,16.08l-48.81,2.64,.2,3.62,48.81-2.64-.2-3.62Z"/></g><g><g><path class="cls-1" d="M202.14,139.49c-2.78,0-5.26-1.94-5.86-4.74-1.06-4.9-1.77-10.68-2.12-17.16-.73-13.58,.28-26.6,.75-31.57,.29-3.1,2.9-5.43,5.97-5.43,.12,0,.25,0,.38,.01l10.99,.68c.86,.05,1.68,.29,2.42,.68l29.65-1.6c.11,0,.22,0,.32,0,1.48,0,2.9,.54,4.01,1.54,1.18,1.06,1.9,2.55,1.98,4.14l.49,9.12c.03,.55-.01,1.08-.12,1.59,.24,.6,.38,1.25,.42,1.9l.49,9.07c.14,2.63-1.44,4.96-3.76,5.89,1.42,.94,2.82,1.96,4.2,3.05,2.21,1.76,2.89,4.83,1.63,7.37l-4.85,9.73c-.81,1.63-2.33,2.81-4.12,3.19-.42,.09-.84,.13-1.25,.13-1.38,0-2.72-.47-3.81-1.36-.44-.36-.88-.73-1.33-1.1-2.55,1.93-6.19,3.4-11.39,3.68l-.47,.03c-.47,.03-.93,.04-1.37,.04-3.38,0-6.3-.7-8.75-1.87-.82,.67-1.82,1.12-2.88,1.28l-10.71,1.64c-.31,.05-.61,.07-.92,.07Z"/><path class="cls-1" d="M267.66,136.88c-12.11,0-19.46-7.48-20.16-20.52v-.26c-.22-3.86-.48-9.7-.75-15.88-.24-5.5-.5-11.35-.75-16.47-.08-1.62,.5-3.21,1.61-4.39,1.11-1.19,2.65-1.87,4.27-1.9,0,0,11.87-.21,11.9-.21,1.57,0,3.09,.62,4.21,1.72,1.15,1.13,1.79,2.68,1.79,4.29-.02,8.66,.31,19,.53,25.85l.11,3.53s.04,.64,.04,.72c3.51-1.01,7.9-5.14,11.2-14.27,.68-1.89,2.27-3.32,4.23-3.79,.47-.11,.94-.17,1.41-.17,1.5,0,2.96,.56,4.09,1.61l9.3,8.65c1.87,1.73,2.43,4.46,1.41,6.79-8.45,19.37-22.51,24.1-32.82,24.66-.55,.03-1.09,.04-1.64,.04Z"/><path class="cls-1" d="M315.07,132.79c-4.71,0-9.26-1.97-12.81-5.56-4.92-4.94-7.52-14.64-8.43-31.46-.19-3.5-.31-7.33-.36-11.72-.04-3.29,2.58-6,5.86-6.07,0,0,11.99-.27,12.04-.27,1.64,0,3.22,.67,4.35,1.87,1.17,1.23,1.76,2.89,1.63,4.58-.35,4.58-.44,9.21-.28,13.48,.73-.52,1.57-.88,2.49-1.04,.34-.06,.68-.09,1.01-.09,1.86,0,3.64,.87,4.79,2.39l2.8,3.71c-1.85-4.56-4.29-8.64-7.37-11.37-1.51-1.34-2.25-3.35-1.96-5.35s1.57-3.72,3.39-4.57l10.27-4.81c.81-.38,1.68-.57,2.54-.57,1.48,0,2.93,.54,4.06,1.59,10.43,9.6,16.05,28.24,16.57,37.82l.03,.48c.13,2.42-1.21,4.67-3.38,5.72l-11.04,5.33c-.83,.4-1.72,.6-2.61,.6-1.02,0-2.05-.26-2.96-.78-1.71-.97-2.84-2.72-3.01-4.69-.04-.46-.09-.93-.14-1.41-5.28,9.96-12.45,11.93-16.57,12.16-.31,.02-.61,.02-.92,.02Z"/></g><g><path class="cls-2" d="M202.15,133.49c-1.07-4.94-1.68-10.49-1.99-16.22-.6-11.19,0-22.82,.74-30.68l10.99,.68c-1.31,8.16-1.83,18.4-1.31,27.94,.33,6.1,1.07,11.91,2.28,16.63l-10.71,1.64Zm41.63-2.41c-1.95-1.6-3.9-3.3-5.96-4.89-1.55,3.7-5.06,5.81-10.89,6.12l-.48,.03c-8.27,.45-12.58-4.43-12.85-9.36-.27-5.04,3.59-10.3,11.5-10.73,.96-.05,1.96-.05,3.09,.04l-.23-3.23-14.27,.77-.49-9.12,14.06-.76c-.06-1.17-.18-2.33-.24-3.45l-13.31,.72-.5-9.18,31.45-1.7,.49,9.12-7.8,.42,.19,3.5,7.9-.43,.49,9.07-7.85,.42c.13,2.44,.31,4.72,.41,6.63,3.16,1.43,6.57,3.42,10.13,6.26l-4.85,9.73Zm-18.55-10.6c-1.96,.11-2.99,.85-2.93,1.86v.05c.07,1.27,1.48,1.78,3.6,1.67,2.17-.17,2.85-1.48,3.03-3.09-1.13-.31-2.32-.57-3.49-.5h-.21Z"/><path class="cls-2" d="M296.61,109.77c-6.2,14.22-16.24,20.45-27.64,21.07-7.58,.41-14.82-2.55-15.48-14.8v-.27c-.4-7.21-.96-21.38-1.49-32.31l11.8-.21c-.02,10.43,.45,23.01,.64,29.65l.03,.53c.23,4.3,1.67,6.35,5.01,6.17,6.36-.34,13.34-6.04,17.83-18.46l9.3,8.65Z"/><path class="cls-2" d="M329.05,113.77c-4.46,11.89-11.17,12.89-13.39,13.01-3.18,.17-6.44-1.04-9.14-3.76-4.27-4.29-6.05-15.42-6.7-27.56-.2-3.77-.31-7.64-.35-11.47l11.9-.27c-.4,5.34-.48,10.82-.21,15.76,.18,3.34,1.2,15.26,4.06,15.1,1.54-.08,2.13-1.87,5.36-12.05l8.48,11.25Zm9.62,7.73c-.95-10.69-4.9-26.76-13.9-34.73l10.27-4.81c8.79,8.09,14.16,24.82,14.64,33.73l.03,.48-11.04,5.33Z"/></g></g><g><g><path class="cls-1" d="M148.71,73.67c-1.35,0-2.7-.46-3.8-1.35l-9.35-7.64c-1.57-1.28-2.38-3.26-2.17-5.27,.21-2.01,1.42-3.78,3.22-4.71,5.59-2.88,10.26-6.13,14.13-9.82-2.58-1.31-5.14-2.47-7.67-3.48-1.78-.71-3.12-2.23-3.59-4.09-.47-1.86-.03-3.83,1.19-5.31l7.19-8.69c1.16-1.4,2.87-2.17,4.62-2.17,.68,0,1.37,.12,2.04,.36,2.49,.9,5.31,2.16,8.44,3.76,.97-2.85,1.77-5.88,2.39-9.06,.32-1.63,1.3-3.05,2.71-3.93,.96-.6,2.07-.91,3.18-.91,.51,0,1.03,.07,1.54,.2l11.26,2.99c3.19,.85,5.1,4.12,4.27,7.31-1.57,6.01-3.27,11.16-5.25,15.85,3.71,2.71,7.02,5.45,9.57,7.94,2.23,2.18,2.43,5.7,.45,8.11l-7.69,9.35c-1.08,1.31-2.67,2.11-4.37,2.18-.09,0-.18,0-.27,0-1.6,0-3.14-.64-4.27-1.79-1.85-1.88-3.88-3.75-6.07-5.58-5.24,5.88-11.53,10.91-18.77,14.99-.92,.52-1.93,.77-2.94,.77Z"/><path class="cls-1" d="M190.05,52.3c-3.17,0-5.81-2.48-5.99-5.68l-.63-11.7c-.09-1.59,.46-3.15,1.53-4.33,1.06-1.18,2.55-1.9,4.14-1.98l45.96-2.48c.11,0,.22,0,.33,0,3.17,0,5.81,2.48,5.99,5.68l.63,11.7c.09,1.59-.46,3.15-1.53,4.33-1.06,1.18-2.55,1.9-4.14,1.98l-45.96,2.48c-.11,0-.22,0-.33,0Z"/><path class="cls-1" d="M245.49,67.86c-1.36,0-2.71-.46-3.81-1.36l-9.18-7.54c-1.56-1.28-2.37-3.25-2.16-5.26,.21-2,1.41-3.77,3.19-4.7,6.42-3.35,9.84-6.45,11.63-11.19l-5.92,.32c-.11,0-.22,0-.33,0-3.17,0-5.81-2.48-5.99-5.68l-.53-9.8c-.18-3.31,2.36-6.14,5.67-6.31l8.63-.47-.11-2.57c-.14-3.28,2.39-6.06,5.67-6.24l11.12-.6c.11,0,.22,0,.32,0,1.5,0,2.95,.56,4.06,1.58,1.19,1.1,1.89,2.62,1.93,4.24l.07,2.35,11.3-.61c.11,0,.22,0,.32,0,1.48,0,2.9,.54,4.01,1.53,1.18,1.06,1.9,2.55,1.98,4.14,.58,10.72,1.02,24.7-.14,30.39-1.37,6.6-5.87,14.63-19.51,15.48-1.5,.08-2.96,.16-4.58,.19-.04,0-.08,0-.12,0-2.42,0-4.61-1.45-5.54-3.7l-.61-1.46c-2.34,2.24-5.06,4.34-8.17,6.32-.99,.63-2.11,.94-3.22,.94Z"/><path class="cls-1" d="M287.55,47.04c-3.17,0-5.81-2.48-5.99-5.68l-.63-11.7c-.09-1.59,.46-3.15,1.53-4.33,1.06-1.18,2.55-1.9,4.14-1.98l45.96-2.48c.11,0,.22,0,.32,0,1.48,0,2.9,.54,4.01,1.54,1.18,1.06,1.9,2.55,1.98,4.14l.63,11.7c.18,3.31-2.36,6.14-5.67,6.31l-45.96,2.48c-.11,0-.22,0-.33,0Z"/></g><g><path class="cls-2" d="M180.77,59.28c-3.41-3.46-7.18-6.7-11.26-9.75-4.93,6.66-11.56,12.94-20.8,18.14l-9.35-7.64c8.59-4.43,15.54-9.82,20.87-16.77-4.81-2.86-9.81-5.39-14.94-7.44l7.19-8.69c3.94,1.43,8.66,3.81,13.52,6.62,2.28-4.83,4.04-10.26,5.25-16.4l11.26,2.99c-1.62,6.22-3.74,12.89-6.99,19.41,5.1,3.42,9.68,7.04,12.92,10.19l-7.69,9.35Z"/><path class="cls-2" d="M190.05,46.3l-.63-11.7,45.96-2.48,.63,11.7-45.96,2.48Z"/><path class="cls-2" d="M258.54,48.95c-2.85,4.96-7.07,9.1-13.04,12.91l-9.18-7.54c10.85-5.66,15.17-11.66,16.31-22.92l-13.7,.74-.53-9.8,14.55-.79-.35-8.49,11.12-.6,.25,8.5,17.45-.94c.61,11.23,.93,24.16-.03,28.86-1.68,8.07-7.74,10.3-14.01,10.69-1.42,.08-2.79,.15-4.32,.18l-4.5-10.8Zm8.77-.05c2.37-.23,3.42-2.25,3.67-3.53,.6-3.52,.34-10.27,.09-14.96l-7.43,.4c-.62,7.12-2.1,12.91-4.9,17.87,4.09,.31,6.41,.34,7.99,.25l.58-.03Z"/><path class="cls-2" d="M287.55,41.04l-.63-11.7,45.96-2.48,.63,11.7-45.96,2.48Z"/></g></g><g><path class="cls-1" d="M135.46,140.15c-5.82,0-13.06,0-19.24-2.45-8.19-3.25-12.67-10.02-12.94-19.59-.09-2.41-.15-5.8-.18-9.83,0,0-4.07,.11-4.12,.11-1.54,0-3.02-.59-4.14-1.66-1.16-1.1-1.82-2.62-1.86-4.21l-.27-12.43c-.07-3.3,2.54-6.04,5.84-6.13l4.54-.12c0-.57,0-1.13,.01-1.69,.02-2.27,.03-4.47,.03-6.55,0-3.31,2.69-6,6-6h13.62c1.62,0,3.17,.66,4.3,1.82s1.74,2.73,1.69,4.35c-.07,2.45-.14,4.95-.2,7.42l3.09-.08c0-2.57-.07-5.1-.13-7.27-.05-1.63,.57-3.21,1.72-4.37,1.13-1.15,2.67-1.8,4.28-1.8,.02,0,13.48,.13,13.48,.13,3.29,.03,5.94,2.71,5.94,6v3.12c0,1.12,0,2.29-.02,3.48,0,0,4.54-.11,4.59-.11,1.54,0,3.03,.59,4.14,1.66,1.15,1.1,1.82,2.62,1.85,4.21l.27,12.43c.07,3.31-2.55,6.05-5.86,6.13l-5.97,.14c-.31,2.65-.8,5.01-1.57,7.09,1.27,.11,2.49,.62,3.46,1.48,1.31,1.15,2.05,2.82,2.03,4.56l-.13,13.42c-.03,3.11-2.44,5.69-5.54,5.92-7.1,.54-13.41,.82-18.73,.82Z"/><path class="cls-2" d="M153.73,133.35c-6.98,.53-13.16,.8-18.27,.8-10.96,0-25.72,0-26.18-16.21-.13-3.65-.2-9.37-.2-15.82l-10.1,.27-.27-12.43,10.37-.27c0-4.92,.07-9.77,.07-14.09h13.62c-.13,4.65-.27,9.3-.33,13.76l15.15-.4c0-1.93,.07-3.85,.07-5.71,0-2.66-.07-5.25-.13-7.58l13.42,.13v3.12c0,2.99-.07,6.31-.13,9.64l10.7-.27,.27,12.43-11.43,.27c-.46,13.42-2.72,17.54-16.01,17.54h-3.85l-4.45-13.29c3.65,.53,6.11,.6,7.71,.6h1.26c1.99-.07,2.06-.73,2.33-4.45l-15.02,.33c.07,6.31,.07,11.76,.27,15.82,.13,3.79,3.65,4.05,10.23,4.05,4.92,0,11.9-.4,21.07-1.66l-.13,13.42Z"/></g><g><path class="cls-1" d="M184.21,150.54c-1.09,0-1.94-.02-2.74-.08-4.88-.32-11.91-1.53-17.65-5.49-5.89-4.06-8.88-10.13-8.42-17.11l.02-.23c.17-2.53,.9-5.13,2.08-7.59-1.98-.04-3.96-.07-5.75-.09-1.34-.02-2.61-.57-3.54-1.53-.93-.96-1.43-2.26-1.4-3.6l.24-9.2c.04-1.36,.62-2.64,1.62-3.56,.92-.85,2.13-1.31,3.38-1.31,.1,0,.2,0,.3,0,18.11,1.1,31.04,1.68,39.51,1.77,2.67,.03,4.84,2.14,4.94,4.8l.34,8.74c.06,1.42-.49,2.79-1.51,3.78-.94,.91-2.19,1.42-3.49,1.42-.11,0-.21,0-.32-.01l-.54-.04c-.88-.06-1.74-.09-2.56-.09-10.78,0-13.47,4.97-13.59,6.89,0,0,0,.1,0,.11-.07,1.11,2.5,2.48,7.4,2.8,.85,.06,1.71,.08,2.56,.08s1.64-.03,2.45-.08c.11,0,.21-.01,.32-.01,1.47,0,2.88,.65,3.83,1.79,1.02,1.22,1.4,2.86,1.02,4.4l-2.36,9.61c-.55,2.22-2.53,3.79-4.82,3.81h-1.31Z"/><path class="cls-2" d="M185.48,145.53c-1.23,0-2.47,.02-3.69-.06-11.09-.73-22.16-5.83-21.41-17.28l.02-.23c.27-4.13,2.8-9.26,7.23-12.8-3.83,.02-10.62-.15-15.82-.21l.24-9.2c10.23,.62,28.18,1.66,39.76,1.78l.34,8.74-.54-.04c-16.77-1.1-21.2,7.37-21.47,11.46v.09c-.22,3.27,2.15,7.49,12.05,8.13,1.64,.11,3.55,.14,5.66,0l-2.36,9.61Z"/></g><rect class="cls-1" x="181.47" y="35.5" width="4" height="4"/><rect class="cls-1" x="238.47" y="35.5" width="8" height="9"/></g></svg>